<?xml version="1.0" encoding="UTF-8"?>
<!DOCTYPE svg PUBLIC "-//W3C//DTD SVG 1.1//EN" "http://www.w3.org/Graphics/SVG/1.1/DTD/svg11.dtd">
<svg xmlns="http://www.w3.org/2000/svg" version="1.1" width="96px" height="96px" style="shape-rendering:geometricPrecision; text-rendering:geometricPrecision; image-rendering:optimizeQuality; fill-rule:evenodd; clip-rule:evenodd" xmlns:xlink="http://www.w3.org/1999/xlink">
<g><path style="opacity:0.961" fill="#81d3fa" d="M 43.5,7.5 C 45.1992,7.33982 46.8659,7.50649 48.5,8C 40.9977,14.1853 38.4977,22.0187 41,31.5C 44.7403,41.3003 51.907,46.6336 62.5,47.5C 65.4986,46.5557 68.4986,46.0557 71.5,46C 63.471,55.409 53.471,58.0756 41.5,54C 28.5012,46.6827 24.3346,35.8494 29,21.5C 32.4084,15.2566 37.2417,10.5899 43.5,7.5 Z"/></g>
<g><path style="opacity:0.867" fill="#4ec4f7" d="M 58.5,15.5 C 60.5128,16.4752 61.8461,18.1419 62.5,20.5C 64.8333,21.1667 67.1667,21.8333 69.5,22.5C 68.027,24.3947 66.3603,26.0613 64.5,27.5C 65.3482,29.4086 65.6816,31.4086 65.5,33.5C 63.4004,33.5228 61.5671,32.8561 60,31.5C 57.9534,32.6094 55.7867,33.2761 53.5,33.5C 53.2606,31.5328 53.5939,29.6995 54.5,28C 52.6487,26.3163 50.982,24.4829 49.5,22.5C 54.5791,22.573 57.5791,20.2396 58.5,15.5 Z"/></g>
<g><path style="opacity:0.924" fill="#feb64c" d="M 52.5,67.5 C 55.0205,69.0192 57.5205,70.6859 60,72.5C 60.8333,77.6667 58.6667,79.8333 53.5,79C 46.9216,76.6962 40.4216,74.1962 34,71.5C 30.7012,73.1273 30.8678,74.6273 34.5,76C 41.3328,78.9996 48.3328,81.4996 55.5,83.5C 61.5697,82.4265 64.903,78.7598 65.5,72.5C 70.0437,70.7248 74.3771,68.7248 78.5,66.5C 86.4209,64.2555 89.0876,67.0889 86.5,75C 74.6163,80.442 62.6163,85.6087 50.5,90.5C 40.9057,86.6353 31.239,82.9687 21.5,79.5C 19.0557,80.2217 16.7223,81.2217 14.5,82.5C 11.6879,77.2384 9.35454,71.7384 7.5,66C 7.6448,65.228 7.97814,64.5613 8.5,64C 16.4673,60.2565 24.8006,58.9232 33.5,60C 39.8225,62.6058 46.1558,65.1058 52.5,67.5 Z"/></g>
<g><path style="opacity:0.983" fill="#e89631" d="M 78.5,66.5 C 74.3771,68.7248 70.0437,70.7248 65.5,72.5C 64.903,78.7598 61.5697,82.4265 55.5,83.5C 48.3328,81.4996 41.3328,78.9996 34.5,76C 30.8678,74.6273 30.7012,73.1273 34,71.5C 40.4216,74.1962 46.9216,76.6962 53.5,79C 58.6667,79.8333 60.8333,77.6667 60,72.5C 57.5205,70.6859 55.0205,69.0192 52.5,67.5C 56.1601,65.0032 60.1601,63.0032 64.5,61.5C 66.2951,62.2651 68.1284,62.9318 70,63.5C 73.9877,61.6944 76.821,62.6944 78.5,66.5 Z"/></g>
</svg>
