<?xml version="1.0" encoding="UTF-8"?>
<!DOCTYPE svg PUBLIC "-//W3C//DTD SVG 1.1//EN" "http://www.w3.org/Graphics/SVG/1.1/DTD/svg11.dtd">
<svg xmlns="http://www.w3.org/2000/svg" version="1.1" width="94px" height="94px" style="shape-rendering:geometricPrecision; text-rendering:geometricPrecision; image-rendering:optimizeQuality; fill-rule:evenodd; clip-rule:evenodd" xmlns:xlink="http://www.w3.org/1999/xlink">
<g><path style="opacity:0.016" fill="#1782db" d="M 44.5,5.5 C 45.6009,4.40168 46.9343,4.23502 48.5,5C 47.2068,5.49001 45.8734,5.65668 44.5,5.5 Z"/></g>
<g><path style="opacity:0.993" fill="#197dd8" d="M 56.5,11.5 C 58.9092,14.041 61.5758,15.3743 64.5,15.5C 63.1667,15.8333 63.1667,16.1667 64.5,16.5C 64.5,17.1667 64.8333,17.5 65.5,17.5C 66.087,18.7666 66.087,19.7666 65.5,20.5C 61.841,18.6692 58.0077,17.3359 54,16.5C 50.2853,14.4805 46.452,12.6472 42.5,11C 41.4019,10.2303 41.4019,9.39695 42.5,8.5C 44.0106,6.55888 46.0106,6.05888 48.5,7C 51.3118,8.32773 53.9784,9.82773 56.5,11.5 Z"/></g>
<g><path style="opacity:0.012" fill="#0d68d4" d="M 56.5,10.5 C 57.8333,11.1667 57.8333,11.1667 56.5,10.5 Z"/></g>
<g><path style="opacity:0.998" fill="#1787e0" d="M 39.5,10.5 C 39.6282,12.0898 40.2949,13.4231 41.5,14.5C 48.2339,17.5152 54.9006,20.5152 61.5,23.5C 58.5,23.5 55.5,23.5 52.5,23.5C 47.045,20.6083 41.3783,17.9417 35.5,15.5C 34.7025,15.0431 34.3691,14.3764 34.5,13.5C 35.6594,11.7497 37.326,10.7497 39.5,10.5 Z"/></g>
<g><path style="opacity:0.996" fill="#1781dd" d="M 42.5,8.5 C 41.4019,9.39695 41.4019,10.2303 42.5,11C 46.452,12.6472 50.2853,14.4805 54,16.5C 58.0077,17.3359 61.841,18.6692 65.5,20.5C 66.087,19.7666 66.087,18.7666 65.5,17.5C 68.4735,19.1468 71.1401,21.1468 73.5,23.5C 69.5,23.5 65.5,23.5 61.5,23.5C 54.9006,20.5152 48.2339,17.5152 41.5,14.5C 40.2949,13.4231 39.6282,12.0898 39.5,10.5C 39.9731,9.09368 40.9731,8.42702 42.5,8.5 Z"/></g>
<g><path style="opacity:0.998" fill="#158ce4" d="M 34.5,13.5 C 34.3691,14.3764 34.7025,15.0431 35.5,15.5C 41.3783,17.9417 47.045,20.6083 52.5,23.5C 49.2869,23.19 46.2869,23.5233 43.5,24.5C 35.4931,24.6664 27.4931,24.4997 19.5,24C 27.1667,23.6667 34.8333,23.3333 42.5,23C 38.9212,21.2941 35.4212,19.4608 32,17.5C 31.2825,18.4506 30.4491,18.6172 29.5,18C 30.3805,17.2917 31.0472,16.4584 31.5,15.5C 31.9731,14.0937 32.9731,13.427 34.5,13.5 Z"/></g>
<g><path style="opacity:0.016" fill="#1278dc" d="M 64.5,15.5 C 65.8333,16.1667 65.8333,16.1667 64.5,15.5 Z"/></g>
<g><path style="opacity:0.016" fill="#1786e6" d="M 78.5,24.5 C 79.8333,25.1667 79.8333,25.1667 78.5,24.5 Z"/></g>
<g><path style="opacity:1" fill="#f9f7f8" d="M 19.5,25.5 C 37.1667,25.5 54.8333,25.5 72.5,25.5C 69.7131,26.4767 66.7131,26.81 63.5,26.5C 62.5,26.5 61.5,26.5 60.5,26.5C 58.1667,26.5 55.8333,26.5 53.5,26.5C 50.8333,26.5 48.1667,26.5 45.5,26.5C 40.4889,26.3341 35.4889,26.5007 30.5,27C 31.8333,27.6667 31.8333,28.3333 30.5,29C 27.4883,29.7804 24.6549,30.9471 22,32.5C 21.6667,31.8333 21.3333,31.1667 21,30.5C 20.51,31.7932 20.3433,33.1266 20.5,34.5C 20.5,35.8333 20.5,37.1667 20.5,38.5C 19.5151,34.3656 19.1818,30.0323 19.5,25.5 Z"/></g>
<g><path style="opacity:1" fill="#f1f1f5" d="M 45.5,26.5 C 45.6107,27.1174 45.944,27.6174 46.5,28C 39.6429,32.1181 32.3096,34.9515 24.5,36.5C 22.8857,36.1971 21.5523,35.5305 20.5,34.5C 20.3433,33.1266 20.51,31.7932 21,30.5C 21.3333,31.1667 21.6667,31.8333 22,32.5C 24.6549,30.9471 27.4883,29.7804 30.5,29C 31.8333,28.3333 31.8333,27.6667 30.5,27C 35.4889,26.5007 40.4889,26.3341 45.5,26.5 Z"/></g>
<g><path style="opacity:1" fill="#e9eaef" d="M 45.5,26.5 C 48.1667,26.5 50.8333,26.5 53.5,26.5C 53.6107,27.1174 53.944,27.6174 54.5,28C 46.5086,32.4969 38.1753,36.1635 29.5,39C 26.7037,39.0422 24.037,39.2088 21.5,39.5C 20.8333,39.5 20.5,39.1667 20.5,38.5C 20.5,37.1667 20.5,35.8333 20.5,34.5C 21.5523,35.5305 22.8857,36.1971 24.5,36.5C 32.3096,34.9515 39.6429,32.1181 46.5,28C 45.944,27.6174 45.6107,27.1174 45.5,26.5 Z"/></g>
<g><path style="opacity:1" fill="#e3e4e9" d="M 53.5,26.5 C 55.8333,26.5 58.1667,26.5 60.5,26.5C 60.6107,27.1174 60.944,27.6174 61.5,28C 53.9594,32.2701 46.2927,36.2701 38.5,40C 35.2432,41.0429 31.9099,41.5429 28.5,41.5C 27.3478,40.375 26.3478,40.375 25.5,41.5C 23.847,41.3404 22.5137,40.6737 21.5,39.5C 24.037,39.2088 26.7037,39.0422 29.5,39C 38.1753,36.1635 46.5086,32.4969 54.5,28C 53.944,27.6174 53.6107,27.1174 53.5,26.5 Z"/></g>
<g><path style="opacity:1" fill="#dcdde2" d="M 60.5,26.5 C 61.5,26.5 62.5,26.5 63.5,26.5C 65.2922,27.3091 67.2922,27.8091 69.5,28C 61.8035,33.5134 53.8035,38.5134 45.5,43C 41.1794,43.499 36.8461,43.6657 32.5,43.5C 31.0048,43.0113 29.6715,42.3446 28.5,41.5C 31.9099,41.5429 35.2432,41.0429 38.5,40C 46.2927,36.2701 53.9594,32.2701 61.5,28C 60.944,27.6174 60.6107,27.1174 60.5,26.5 Z"/></g>
<g><path style="opacity:1" fill="#d7d7de" d="M 72.5,25.5 C 73.4794,28.6248 73.8128,31.9581 73.5,35.5C 72.8386,34.2825 72.1719,32.9492 71.5,31.5C 64.3876,37.8989 56.3876,43.0656 47.5,47C 43.8333,47.6667 40.1667,47.6667 36.5,47C 34.9733,45.9681 33.64,44.8014 32.5,43.5C 36.8461,43.6657 41.1794,43.499 45.5,43C 53.8035,38.5134 61.8035,33.5134 69.5,28C 67.2922,27.8091 65.2922,27.3091 63.5,26.5C 66.7131,26.81 69.7131,26.4767 72.5,25.5 Z"/></g>
<g><path style="opacity:0.012" fill="#0a6ee2" d="M 81.5,26.5 C 82.8333,27.1667 82.8333,27.1667 81.5,26.5 Z"/></g>
<g><path style="opacity:0.004" fill="#1d98ea" d="M 83.5,27.5 C 84.8333,28.1667 84.8333,28.1667 83.5,27.5 Z"/></g>
<g><path style="opacity:0.997" fill="#3ca1ec" d="M 31.5,15.5 C 31.0472,16.4584 30.3805,17.2917 29.5,18C 30.4491,18.6172 31.2825,18.4506 32,17.5C 35.4212,19.4608 38.9212,21.2941 42.5,23C 34.8333,23.3333 27.1667,23.6667 19.5,24C 27.4931,24.4997 35.4931,24.6664 43.5,24.5C 53.3478,24.1729 63.0144,24.5062 72.5,25.5C 54.8333,25.5 37.1667,25.5 19.5,25.5C 18.8337,29.3525 18.167,33.3525 17.5,37.5C 14.6067,35.5554 11.6067,33.8887 8.5,32.5C 8.2965,30.6096 8.96317,29.1096 10.5,28C 17.4039,23.5797 24.4039,19.4131 31.5,15.5 Z"/></g>
<g><path style="opacity:0.999" fill="#207ee1" d="M 43.5,24.5 C 46.2869,23.5233 49.2869,23.19 52.5,23.5C 55.5,23.5 58.5,23.5 61.5,23.5C 65.5,23.5 69.5,23.5 73.5,23.5C 75.2838,23.8925 76.9505,24.5592 78.5,25.5C 79.2905,26.4013 80.2905,27.0679 81.5,27.5C 81.8417,28.3382 82.5084,28.6716 83.5,28.5C 83.8333,29.8333 84.1667,31.1667 84.5,32.5C 81.9959,33.5839 79.6626,34.9172 77.5,36.5C 75.9731,36.427 74.9731,37.0937 74.5,38.5C 74.1667,38.5 73.8333,38.5 73.5,38.5C 73.5,37.5 73.5,36.5 73.5,35.5C 73.8128,31.9581 73.4794,28.6248 72.5,25.5C 63.0144,24.5062 53.3478,24.1729 43.5,24.5 Z"/></g>
<g><path style="opacity:1" fill="#cccfd8" d="M 73.5,35.5 C 73.5,36.5 73.5,37.5 73.5,38.5C 72.2905,38.9321 71.2905,39.5987 70.5,40.5C 69.2905,40.9321 68.2905,41.5987 67.5,42.5C 60.1667,46.5 52.8333,50.5 45.5,54.5C 42.4512,52.1373 39.1178,50.1373 35.5,48.5C 32.1667,46.1667 28.8333,43.8333 25.5,41.5C 26.3478,40.375 27.3478,40.375 28.5,41.5C 29.6715,42.3446 31.0048,43.0113 32.5,43.5C 33.64,44.8014 34.9733,45.9681 36.5,47C 40.1667,47.6667 43.8333,47.6667 47.5,47C 56.3876,43.0656 64.3876,37.8989 71.5,31.5C 72.1719,32.9492 72.8386,34.2825 73.5,35.5 Z"/></g>
<g><path style="opacity:1" fill="#47beeb" d="M 77.5,36.5 C 78.9778,36.238 80.3112,36.5713 81.5,37.5C 78.61,46.8289 75.9433,56.1622 73.5,65.5C 73.6567,66.8734 73.49,68.2068 73,69.5C 70.8822,67.637 68.7155,66.9704 66.5,67.5C 64.6916,67.5086 63.0249,67.0086 61.5,66C 60.2381,63.724 58.5714,61.8907 56.5,60.5C 57.8333,60.8333 59.1667,61.1667 60.5,61.5C 62.1868,63.1662 64.1868,64.4995 66.5,65.5C 67.6721,65.0814 68.6721,64.4147 69.5,63.5C 71.0133,58.4461 72.6799,53.4461 74.5,48.5C 73.9908,45.5898 74.6575,42.7564 76.5,40C 75.5842,39.7216 74.9175,39.2216 74.5,38.5C 74.9731,37.0937 75.9731,36.427 77.5,36.5 Z"/></g>
<g><path style="opacity:0.008" fill="#3bb8ef" d="M 85.5,75.5 C 85.3334,60.4963 85.5001,45.4963 86,30.5C 86.8277,45.6723 86.6611,60.6723 85.5,75.5 Z"/></g>
<g><path style="opacity:1" fill="#50c3ec" d="M 73.5,38.5 C 73.8333,38.5 74.1667,38.5 74.5,38.5C 74.9175,39.2216 75.5842,39.7216 76.5,40C 74.6575,42.7564 73.9908,45.5898 74.5,48.5C 72.6799,53.4461 71.0133,58.4461 69.5,63.5C 68.6721,64.4147 67.6721,65.0814 66.5,65.5C 64.1868,64.4995 62.1868,63.1662 60.5,61.5C 64.4933,62.0005 66.16,60.5005 65.5,57C 67.8582,51.7086 69.5249,46.2086 70.5,40.5C 71.2905,39.5987 72.2905,38.9321 73.5,38.5 Z"/></g>
<g><path style="opacity:1" fill="#40c3ef" d="M 10.5,40.5 C 16.5533,42.3602 22.22,45.0268 27.5,48.5C 37.5,54.5 47.5,60.5 57.5,66.5C 55.5183,66.0046 53.5183,65.5046 51.5,65C 46.5393,61.1802 41.2059,57.8468 35.5,55C 28.6065,52.5542 21.9398,49.5542 15.5,46C 12.921,44.9243 11.2543,43.091 10.5,40.5 Z"/></g>
<g><path style="opacity:1" fill="#54caf4" d="M 19.5,25.5 C 19.1818,30.0323 19.5151,34.3656 20.5,38.5C 20.5,39.1667 20.8333,39.5 21.5,39.5C 22.5137,40.6737 23.847,41.3404 25.5,41.5C 28.8333,43.8333 32.1667,46.1667 35.5,48.5C 32.9382,49.3715 30.2716,49.3715 27.5,48.5C 22.22,45.0268 16.5533,42.3602 10.5,40.5C 9.83333,41.5 9.16667,42.5 8.5,43.5C 8.5,39.8333 8.5,36.1667 8.5,32.5C 11.6067,33.8887 14.6067,35.5554 17.5,37.5C 18.167,33.3525 18.8337,29.3525 19.5,25.5 Z"/></g>
<g><path style="opacity:0.985" fill="#3db8ea" d="M 84.5,32.5 C 84.5,42.8333 84.5,53.1667 84.5,63.5C 83.596,62.791 83.2627,61.791 83.5,60.5C 81.1432,60.3367 78.8098,60.5034 76.5,61C 75.1031,62.3103 74.1031,63.8103 73.5,65.5C 75.9433,56.1622 78.61,46.8289 81.5,37.5C 80.3112,36.5713 78.9778,36.238 77.5,36.5C 79.6626,34.9172 81.9959,33.5839 84.5,32.5 Z"/></g>
<g><path style="opacity:0.999" fill="#36beee" d="M 10.5,40.5 C 11.2543,43.091 12.921,44.9243 15.5,46C 21.9398,49.5542 28.6065,52.5542 35.5,55C 41.2059,57.8468 46.5393,61.1802 51.5,65C 53.5183,65.5046 55.5183,66.0046 57.5,66.5C 61.3467,69.8038 65.68,72.6371 70.5,75C 72.958,76.7331 72.6247,77.8998 69.5,78.5C 68.5,78.5 67.5,78.5 66.5,78.5C 66.9175,77.7784 67.5842,77.2784 68.5,77C 68.1667,76.6667 67.8333,76.3333 67.5,76C 55.038,70.9347 43.038,65.1013 31.5,58.5C 24.3919,54.7766 17.3919,50.7766 10.5,46.5C 9.81654,46.8627 9.14987,47.1961 8.5,47.5C 8.5,46.1667 8.5,44.8333 8.5,43.5C 9.16667,42.5 9.83333,41.5 10.5,40.5 Z"/></g>
<g><path style="opacity:0.999" fill="#28b7ec" d="M 31.5,58.5 C 41.4087,65.9551 52.0754,72.1218 63.5,77C 61.1902,77.4966 58.8568,77.6633 56.5,77.5C 41.6383,68.0528 26.6383,58.5528 11.5,49C 10.4232,48.5304 9.42317,48.6971 8.5,49.5C 8.5,48.8333 8.5,48.1667 8.5,47.5C 9.14987,47.1961 9.81654,46.8627 10.5,46.5C 17.3919,50.7766 24.3919,54.7766 31.5,58.5 Z"/></g>
<g><path style="opacity:1" fill="#4cc5f1" d="M 27.5,48.5 C 30.2716,49.3715 32.9382,49.3715 35.5,48.5C 39.1178,50.1373 42.4512,52.1373 45.5,54.5C 49.2112,55.8519 52.8779,57.5185 56.5,59.5C 56.5,59.8333 56.5,60.1667 56.5,60.5C 58.5714,61.8907 60.2381,63.724 61.5,66C 63.0249,67.0086 64.6916,67.5086 66.5,67.5C 67.1667,67.8333 67.8333,68.1667 68.5,68.5C 67.9032,69.1386 67.0698,69.472 66,69.5C 63.1042,68.6334 60.2709,67.6334 57.5,66.5C 47.5,60.5 37.5,54.5 27.5,48.5 Z"/></g>
<g><path style="opacity:0.999" fill="#20b2eb" d="M 56.5,77.5 C 53.9407,77.1984 51.6074,77.5318 49.5,78.5C 47.5,78.5 45.5,78.5 43.5,78.5C 44.9516,77.6981 46.6183,77.1981 48.5,77C 48.1667,76.6667 47.8333,76.3333 47.5,76C 37.9948,69.4145 28.3281,63.0811 18.5,57C 15.1523,55.3903 11.819,53.8903 8.5,52.5C 8.5,51.5 8.5,50.5 8.5,49.5C 9.42317,48.6971 10.4232,48.5304 11.5,49C 26.6383,58.5528 41.6383,68.0528 56.5,77.5 Z"/></g>
<g><path style="opacity:1" fill="#5dc9ee" d="M 70.5,40.5 C 69.5249,46.2086 67.8582,51.7086 65.5,57C 66.16,60.5005 64.4933,62.0005 60.5,61.5C 59.1667,61.1667 57.8333,60.8333 56.5,60.5C 56.5,60.1667 56.5,59.8333 56.5,59.5C 58.3109,59.428 59.6443,58.5947 60.5,57C 62.3647,51.886 64.6981,47.0527 67.5,42.5C 68.2905,41.5987 69.2905,40.9321 70.5,40.5 Z"/></g>
<g><path style="opacity:1" fill="#70d0f2" d="M 67.5,42.5 C 64.6981,47.0527 62.3647,51.886 60.5,57C 59.6443,58.5947 58.3109,59.428 56.5,59.5C 52.8779,57.5185 49.2112,55.8519 45.5,54.5C 52.8333,50.5 60.1667,46.5 67.5,42.5 Z"/></g>
<g><path style="opacity:0.999" fill="#18abeb" d="M 8.5,52.5 C 11.819,53.8903 15.1523,55.3903 18.5,57C 28.3281,63.0811 37.9948,69.4145 47.5,76C 47.8333,76.3333 48.1667,76.6667 48.5,77C 46.6183,77.1981 44.9516,77.6981 43.5,78.5C 41.1667,78.5 38.8333,78.5 36.5,78.5C 37.2625,77.7321 38.2625,77.2321 39.5,77C 30.5845,68.8699 20.9178,61.7032 10.5,55.5C 9.81815,56.2427 9.15149,56.9094 8.5,57.5C 8.5,55.8333 8.5,54.1667 8.5,52.5 Z"/></g>
<g><path style="opacity:0.012" fill="#2bb0f1" d="M 6.5,29.5 C 7.66132,44.9946 7.82798,60.6612 7,76.5C 6.50008,60.8369 6.33341,45.1702 6.5,29.5 Z"/></g>
<g><path style="opacity:0.999" fill="#2fbaed" d="M 31.5,58.5 C 43.038,65.1013 55.038,70.9347 67.5,76C 67.8333,76.3333 68.1667,76.6667 68.5,77C 67.5842,77.2784 66.9175,77.7784 66.5,78.5C 60.8333,78.5 55.1667,78.5 49.5,78.5C 51.6074,77.5318 53.9407,77.1984 56.5,77.5C 58.8568,77.6633 61.1902,77.4966 63.5,77C 52.0754,72.1218 41.4087,65.9551 31.5,58.5 Z"/></g>
<g><path style="opacity:0.997" fill="#35b0f2" d="M 84.5,63.5 C 84.5,67.5 84.5,71.5 84.5,75.5C 83.6618,75.8417 83.3284,76.5084 83.5,77.5C 83.1667,77.5 82.8333,77.5 82.5,77.5C 78.2096,74.015 73.543,71.015 68.5,68.5C 67.8333,68.1667 67.1667,67.8333 66.5,67.5C 68.7155,66.9704 70.8822,67.637 73,69.5C 73.49,68.2068 73.6567,66.8734 73.5,65.5C 74.1031,63.8103 75.1031,62.3103 76.5,61C 78.8098,60.5034 81.1432,60.3367 83.5,60.5C 83.2627,61.791 83.596,62.791 84.5,63.5 Z"/></g>
<g><path style="opacity:0.994" fill="#1996ea" d="M 25.5,78.5 C 20.5,78.5 15.5,78.5 10.5,78.5C 8.64157,74.4731 7.9749,70.1398 8.5,65.5C 9.46138,63.7354 9.79472,61.7354 9.5,59.5C 12.2613,60.9205 15.2613,61.5871 18.5,61.5C 18.5104,68.5436 21.8437,73.5436 28.5,76.5C 27.3984,77.1757 26.3984,77.8423 25.5,78.5 Z"/></g>
<g><path style="opacity:1" fill="#17a4e9" d="M 36.5,78.5 C 32.8333,78.5 29.1667,78.5 25.5,78.5C 26.3984,77.8423 27.3984,77.1757 28.5,76.5C 21.8437,73.5436 18.5104,68.5436 18.5,61.5C 15.2613,61.5871 12.2613,60.9205 9.5,59.5C 9.79472,61.7354 9.46138,63.7354 8.5,65.5C 8.5,62.8333 8.5,60.1667 8.5,57.5C 9.15149,56.9094 9.81815,56.2427 10.5,55.5C 20.9178,61.7032 30.5845,68.8699 39.5,77C 38.2625,77.2321 37.2625,77.7321 36.5,78.5 Z"/></g>
<g><path style="opacity:0.998" fill="#48c1ee" d="M 57.5,66.5 C 60.2709,67.6334 63.1042,68.6334 66,69.5C 67.0698,69.472 67.9032,69.1386 68.5,68.5C 73.543,71.015 78.2096,74.015 82.5,77.5C 82.5,77.8333 82.5,78.1667 82.5,78.5C 78.1667,78.5 73.8333,78.5 69.5,78.5C 72.6247,77.8998 72.958,76.7331 70.5,75C 65.68,72.6371 61.3467,69.8038 57.5,66.5 Z"/></g>
<g><path style="opacity:0.004" fill="#30a0f3" d="M 84.5,75.5 C 84.8333,75.5 85.1667,75.5 85.5,75.5C 85.6716,76.4916 85.3382,77.1583 84.5,77.5C 84.5,76.8333 84.5,76.1667 84.5,75.5 Z"/></g>
<g><path style="opacity:0.008" fill="#2eaef2" d="M 83.5,77.5 C 83.8333,77.5 84.1667,77.5 84.5,77.5C 84.3147,78.1701 83.9813,78.1701 83.5,77.5 Z"/></g>
<g><path style="opacity:0.004" fill="#1787e3" d="M 10.5,78.5 C 9.83333,79.1667 9.83333,79.1667 10.5,78.5 Z"/></g>
<g><path style="opacity:0.004" fill="#31aef1" d="M 82.5,78.5 C 82.8333,78.5 83.1667,78.5 83.5,78.5C 83.3147,79.1701 82.9813,79.1701 82.5,78.5 Z"/></g>
<g><path style="opacity:0.012" fill="#31b4ed" d="M 11.5,80.5 C 34.663,79.3369 57.9964,79.1703 81.5,80C 58.169,80.5 34.8357,80.6666 11.5,80.5 Z"/></g>
</svg>
