<?xml version="1.0" encoding="UTF-8"?>
<!DOCTYPE svg PUBLIC "-//W3C//DTD SVG 1.1//EN" "http://www.w3.org/Graphics/SVG/1.1/DTD/svg11.dtd">
<svg xmlns="http://www.w3.org/2000/svg" version="1.1" width="96px" height="96px" style="shape-rendering:geometricPrecision; text-rendering:geometricPrecision; image-rendering:optimizeQuality; fill-rule:evenodd; clip-rule:evenodd" xmlns:xlink="http://www.w3.org/1999/xlink">
<g><path style="opacity:0.987" fill="#19193f" d="M 41.5,31.5 C 46.5111,31.6659 51.5111,31.4993 56.5,31C 57.4667,26.5986 57.8,22.0986 57.5,17.5C 56.5353,14.6803 54.5353,13.3469 51.5,13.5C 51.5,11.5 51.5,9.5 51.5,7.5C 59.514,6.18865 63.514,9.52198 63.5,17.5C 63.839,22.9302 63.339,28.2636 62,33.5C 58.8727,36.7098 55.0394,38.0431 50.5,37.5C 50.5,39.5 50.5,41.5 50.5,43.5C 56.8572,45.0843 63.5239,46.251 70.5,47C 73.1001,49.9836 74.1001,53.4836 73.5,57.5C 81.514,56.1886 85.514,59.522 85.5,67.5C 83.5,70.1667 81.5,70.1667 79.5,67.5C 79.0557,65.8868 78.0557,64.7202 76.5,64C 63.3333,60.5 58.5,65.3333 62,78.5C 62.7202,80.0557 63.8868,81.0557 65.5,81.5C 69.8461,81.6657 74.1794,81.499 78.5,81C 79.2266,79.6012 79.7266,78.1012 80,76.5C 82.7864,74.8158 84.6198,75.4825 85.5,78.5C 85.1999,81.5789 83.8666,84.0789 81.5,86C 76.2636,87.339 70.9302,87.839 65.5,87.5C 61.1116,88.0567 57.9449,86.3901 56,82.5C 55.3333,75.8333 55.3333,69.1667 56,62.5C 58.5317,58.0928 62.365,56.4262 67.5,57.5C 67.6709,55.0072 66.6709,53.1739 64.5,52C 53.1667,51.3333 41.8333,51.3333 30.5,52C 28.3291,53.1739 27.3291,55.0072 27.5,57.5C 35.514,56.1886 39.514,59.522 39.5,67.5C 39.6658,72.1785 39.4992,76.8452 39,81.5C 37.6802,85.1816 35.1802,86.6816 31.5,86C 30.0612,83.695 30.5612,81.8616 33,80.5C 33.499,76.1794 33.6657,71.8461 33.5,67.5C 33.0557,65.8868 32.0557,64.7202 30.5,64C 26.5,63.3333 22.5,63.3333 18.5,64C 16.3291,65.1739 15.3291,67.0072 15.5,69.5C 13.5,69.5 11.5,69.5 9.5,69.5C 8.5,60.5 12.5,56.5 21.5,57.5C 20.8999,53.4836 21.8999,49.9836 24.5,47C 31.0496,45.5796 37.7163,45.0796 44.5,45.5C 44.5,44.5 44.5,43.5 44.5,42.5C 44.5,40.8333 44.5,39.1667 44.5,37.5C 43.5,37.5 42.5,37.5 41.5,37.5C 38.1379,37.9305 35.3046,36.9305 33,34.5C 31.4055,27.2735 31.0722,19.9402 32,12.5C 32.4652,11.0692 33.2986,9.90252 34.5,9C 38.3749,7.47958 42.3749,7.14625 46.5,8C 47.8333,9.66667 47.8333,11.3333 46.5,13C 39.7046,12.4705 37.0379,15.6372 38.5,22.5C 38.8333,25.1667 39.1667,27.8333 39.5,30.5C 40.1835,30.8627 40.8501,31.1961 41.5,31.5 Z"/></g>
<g><path style="opacity:0.987" fill="#fdaa91" d="M 57.5,17.5 C 57.8,22.0986 57.4667,26.5986 56.5,31C 51.5111,31.4993 46.5111,31.6659 41.5,31.5C 41.203,27.2325 41.5363,23.0659 42.5,19C 47.3722,17.6115 52.3722,17.1115 57.5,17.5 Z"/></g>
<g><path style="opacity:0.985" fill="#fda990" d="M 63.5,17.5 C 65.9928,17.3291 67.8261,18.3291 69,20.5C 69.6667,27.1667 69.6667,33.8333 69,40.5C 68.5,41.6667 67.6667,42.5 66.5,43C 61.1771,43.4994 55.8437,43.666 50.5,43.5C 50.5,41.5 50.5,39.5 50.5,37.5C 55.0394,38.0431 58.8727,36.7098 62,33.5C 63.339,28.2636 63.839,22.9302 63.5,17.5 Z"/></g>
<g><path style="opacity:0.908" fill="#ffaa90" d="M 41.5,37.5 C 42.5,37.5 43.5,37.5 44.5,37.5C 44.5,39.1667 44.5,40.8333 44.5,42.5C 42.2591,41.7002 41.2591,40.0336 41.5,37.5 Z"/></g>
<g><path style="opacity:0.974" fill="#fdaa90" d="M 33.5,67.5 C 33.6657,71.8461 33.499,76.1794 33,80.5C 30.5612,81.8616 30.0612,83.695 31.5,86C 35.1802,86.6816 37.6802,85.1816 39,81.5C 39.4992,76.8452 39.6658,72.1785 39.5,67.5C 41.9928,67.3291 43.8261,68.3291 45,70.5C 45.7968,77.5505 45.6301,84.5505 44.5,91.5C 43.9747,92.1924 43.3081,92.6924 42.5,93C 35.8333,93.6667 29.1667,93.6667 22.5,93C 20.3291,91.8261 19.3291,89.9928 19.5,87.5C 24.6673,88.5081 26.334,86.6748 24.5,82C 22.8659,81.5065 21.1992,81.3398 19.5,81.5C 16.8333,69.5 21.5,64.8333 33.5,67.5 Z"/></g>
<g><path style="opacity:0.975" fill="#fdaa90" d="M 79.5,67.5 C 81.5,70.1667 83.5,70.1667 85.5,67.5C 87.9928,67.3291 89.8261,68.3291 91,70.5C 91.7968,77.5505 91.6301,84.5505 90.5,91.5C 89.9747,92.1924 89.3081,92.6924 88.5,93C 81.8333,93.6667 75.1667,93.6667 68.5,93C 66.3291,91.8261 65.3291,89.9928 65.5,87.5C 70.9302,87.839 76.2636,87.339 81.5,86C 83.8666,84.0789 85.1999,81.5789 85.5,78.5C 84.6198,75.4825 82.7864,74.8158 80,76.5C 79.7266,78.1012 79.2266,79.6012 78.5,81C 74.1794,81.499 69.8461,81.6657 65.5,81.5C 62.8333,69.5 67.5,64.8333 79.5,67.5 Z"/></g>
<g><path style="opacity:0.979" fill="#191a3f" d="M 19.5,81.5 C 21.1992,81.3398 22.8659,81.5065 24.5,82C 26.334,86.6748 24.6673,88.5081 19.5,87.5C 10.6975,86.9356 7.53082,82.2689 10,73.5C 11.3876,72.4464 12.8876,72.2797 14.5,73C 15.2272,75.124 15.8938,77.2906 16.5,79.5C 17.3569,80.4252 18.3569,81.0919 19.5,81.5 Z"/></g>
</svg>
