<?xml version="1.0" encoding="UTF-8"?>
<!DOCTYPE svg PUBLIC "-//W3C//DTD SVG 1.1//EN" "http://www.w3.org/Graphics/SVG/1.1/DTD/svg11.dtd">
<svg xmlns="http://www.w3.org/2000/svg" version="1.1" width="100px" height="100px" style="shape-rendering:geometricPrecision; text-rendering:geometricPrecision; image-rendering:optimizeQuality; fill-rule:evenodd; clip-rule:evenodd" xmlns:xlink="http://www.w3.org/1999/xlink">
<g><path style="opacity:0.777" fill="#000000" d="M 39.5,11.5 C 46.1667,11.5 52.8333,11.5 59.5,11.5C 60.0127,19.466 60.1794,27.466 60,35.5C 60.9147,36.3279 61.5814,37.3279 62,38.5C 66.618,43.5731 71.118,48.7398 75.5,54C 80.4889,54.4993 85.4889,54.6659 90.5,54.5C 90.8032,62.8886 90.4699,71.222 89.5,79.5C 81.9116,81.2325 74.2449,81.7325 66.5,81C 66,80.5 65.5,80 65,79.5C 64.3333,71.5 64.3333,63.5 65,55.5C 66.8254,54.8971 68.6587,54.2304 70.5,53.5C 66.3548,48.187 62.0214,43.0203 57.5,38C 54.5706,37.2228 51.7372,37.3895 49,38.5C 49.0716,43.8442 49.5716,49.1776 50.5,54.5C 54.5705,54.2338 58.5705,54.5672 62.5,55.5C 63.0131,63.8216 62.6798,72.155 61.5,80.5C 52.9149,80.8166 44.4149,80.4832 36,79.5C 35.3355,71.4637 35.6688,63.4637 37,55.5C 40.3936,54.5442 43.8936,54.2108 47.5,54.5C 46.6161,49.196 45.9494,43.8626 45.5,38.5C 41.8183,38.3347 38.1516,38.5014 34.5,39C 30.4305,43.1384 27.0971,47.8051 24.5,53C 27.8536,53.4552 31.1869,53.9552 34.5,54.5C 34.8032,62.8886 34.4699,71.222 33.5,79.5C 25.1756,80.5207 16.8422,80.5207 8.5,79.5C 7.20102,70.8263 7.20102,62.1596 8.5,53.5C 12.5138,53.6655 16.5138,53.4988 20.5,53C 23.8986,46.9325 28.0653,41.4325 33,36.5C 32.6469,29.1851 32.6469,21.8518 33,14.5C 34.9912,13.0082 37.1578,12.0082 39.5,11.5 Z M 39.5,16.5 C 43.8839,16.1744 48.2172,16.5078 52.5,17.5C 54.0158,22.0739 54.6824,27.0739 54.5,32.5C 52.3618,32.297 50.6951,31.297 49.5,29.5C 48.1076,30.6053 46.941,31.9386 46,33.5C 45.5172,32.552 45.3505,31.552 45.5,30.5C 43.1732,30.6646 41.0065,31.3313 39,32.5C 37.0537,26.9238 37.2204,21.5904 39.5,16.5 Z M 20.5,74.5 C 20.5,73.5 20.5,72.5 20.5,71.5C 18.8762,71.3601 17.7096,72.0267 17,73.5C 15.6015,72.9491 14.2682,72.6158 13,72.5C 12.5008,67.8452 12.3342,63.1785 12.5,58.5C 15.8333,58.5 19.1667,58.5 22.5,58.5C 22.5898,63.3892 23.7565,63.7225 26,59.5C 26.6054,61.4812 27.6054,61.8146 29,60.5C 29.6667,65.5 29.6667,70.5 29,75.5C 28.4532,70.6517 27.1199,70.3184 25,74.5C 23.752,69.5206 22.252,69.5206 20.5,74.5 Z M 57.5,61.5 C 57.5,66.1667 57.5,70.8333 57.5,75.5C 55.8333,75.5 54.1667,75.5 52.5,75.5C 51.8066,71.7222 50.6399,71.7222 49,75.5C 48.6924,74.6919 48.1924,74.0253 47.5,73.5C 45.7145,75.9224 44.0478,75.9224 42.5,73.5C 41.914,73.7093 41.414,74.0426 41,74.5C 40.8726,73.2234 41.3726,72.0567 42.5,71C 41.1667,69.6667 41.1667,68.3333 42.5,67C 42.0946,66.0546 41.428,65.3879 40.5,65C 41.4061,63.3005 41.7394,61.4672 41.5,59.5C 44.5,59.5 47.5,59.5 50.5,59.5C 51.2471,63.193 52.5804,63.193 54.5,59.5C 55.2652,60.6119 56.2652,61.2786 57.5,61.5 Z M 69.5,59.5 C 72.1667,59.5 74.8333,59.5 77.5,59.5C 78.1667,64.8333 78.8333,64.8333 79.5,59.5C 81.5,59.5 83.5,59.5 85.5,59.5C 84.7834,62.3229 83.7834,64.9896 82.5,67.5C 83.5,67.5 84.5,67.5 85.5,67.5C 85.5,70.1667 85.5,72.8333 85.5,75.5C 83.857,75.5198 82.5237,74.8532 81.5,73.5C 80.914,73.7093 80.414,74.0426 80,74.5C 79.7508,73.376 79.2508,72.376 78.5,71.5C 76.6385,72.5283 75.3052,74.0283 74.5,76C 72.8659,76.4935 71.1992,76.6602 69.5,76.5C 69.3664,72.6984 70.033,69.0318 71.5,65.5C 70.7957,63.4649 70.129,61.4649 69.5,59.5 Z"/></g>
<g><path style="opacity:0.529" fill="#000000" d="M 39.5,19.5 C 40.9778,19.238 42.3112,19.5713 43.5,20.5C 42.6798,22.1112 41.3464,22.7778 39.5,22.5C 39.5,21.5 39.5,20.5 39.5,19.5 Z"/></g>
<g><path style="opacity:0.483" fill="#000000" d="M 45.5,63.5 C 46.5,63.5 47.5,63.5 48.5,63.5C 48.5,64.8333 48.5,66.1667 48.5,67.5C 47.5,67.5 46.5,67.5 45.5,67.5C 45.5,66.1667 45.5,64.8333 45.5,63.5 Z"/></g>
<g><path style="opacity:0.485" fill="#000000" d="M 52.5,67.5 C 53.5,67.5 54.5,67.5 55.5,67.5C 55.5,68.8333 55.5,70.1667 55.5,71.5C 54.5,71.5 53.5,71.5 52.5,71.5C 52.5,70.1667 52.5,68.8333 52.5,67.5 Z"/></g>
</svg>
