<?xml version="1.0" encoding="UTF-8"?>
<!DOCTYPE svg PUBLIC "-//W3C//DTD SVG 1.1//EN" "http://www.w3.org/Graphics/SVG/1.1/DTD/svg11.dtd">
<svg xmlns="http://www.w3.org/2000/svg" version="1.1" width="100px" height="100px" style="shape-rendering:geometricPrecision; text-rendering:geometricPrecision; image-rendering:optimizeQuality; fill-rule:evenodd; clip-rule:evenodd" xmlns:xlink="http://www.w3.org/1999/xlink">
<g><path style="opacity:0.973" fill="#c9ede7" d="M 78.5,34.5 C 78.1667,34.5 77.8333,34.5 77.5,34.5C 66.2476,33.5227 54.9143,33.1894 43.5,33.5C 43.7409,30.9664 42.7409,29.2998 40.5,28.5C 39.5592,26.9505 38.8925,25.2838 38.5,23.5C 47.2436,12.7392 57.9103,10.5725 70.5,17C 73.07,19.0673 75.07,21.5673 76.5,24.5C 77.7287,25.2811 79.062,25.7811 80.5,26C 79.5,26.3333 78.5,26.6667 77.5,27C 78.435,29.3806 78.7683,31.8806 78.5,34.5 Z"/></g>
<g><path style="opacity:1" fill="#757e96" d="M 26.5,35.5 C 33.6476,34.5084 40.9809,34.175 48.5,34.5C 48.5,34.8333 48.5,35.1667 48.5,35.5C 47.1667,35.5 46.5,36.1667 46.5,37.5C 43.1667,37.5 39.8333,37.5 36.5,37.5C 34.772,36.621 32.9386,35.9543 31,35.5C 29.9302,35.528 29.0968,35.8614 28.5,36.5C 27.8333,36.1667 27.1667,35.8333 26.5,35.5 Z"/></g>
<g><path style="opacity:0.962" fill="#c7ede6" d="M 78.5,34.5 C 86.4482,37.7139 89.7816,43.7139 88.5,52.5C 85.0173,52.3094 81.6839,51.6427 78.5,50.5C 78.5,45.8333 78.5,41.1667 78.5,36.5C 78.5,35.8333 78.5,35.1667 78.5,34.5 Z"/></g>
<g><path style="opacity:1" fill="#4d322f" d="M 38.5,23.5 C 38.8925,25.2838 39.5592,26.9505 40.5,28.5C 42.7409,29.2998 43.7409,30.9664 43.5,33.5C 54.9143,33.1894 66.2476,33.5227 77.5,34.5C 77.1583,35.3382 76.4916,35.6716 75.5,35.5C 74.0813,34.5489 72.4147,34.2155 70.5,34.5C 64.8333,34.5 59.1667,34.5 53.5,34.5C 51.8333,34.5 50.1667,34.5 48.5,34.5C 40.9809,34.175 33.6476,34.5084 26.5,35.5C 25.1667,35.5 24.5,36.1667 24.5,37.5C 23.5166,41.2984 23.1832,45.2984 23.5,49.5C 23.5,51.5 23.5,53.5 23.5,55.5C 23.5,60.1667 23.5,64.8333 23.5,69.5C 22.5056,59.0131 22.1722,48.3464 22.5,37.5C 20.8333,37.5 19.1667,37.5 17.5,37.5C 9.52935,38.3927 7.19602,35.2261 10.5,28C 13.3394,26.3429 16.3394,25.0096 19.5,24C 22.7156,18.8733 26.7156,18.2067 31.5,22C 33.9204,22.2904 36.2537,22.7904 38.5,23.5 Z"/></g>
<g><path style="opacity:1" fill="#f4f1e5" d="M 40.5,28.5 C 41.1534,29.8068 41.8201,31.1401 42.5,32.5C 36.1928,33.3306 29.8594,33.8306 23.5,34C 20.2912,36.4401 16.6246,37.1068 12.5,36C 11.1955,35.196 10.5288,34.0293 10.5,32.5C 11.8357,29.762 13.8357,27.5953 16.5,26C 17.8989,25.4054 19.2322,25.5721 20.5,26.5C 23.3192,18.9197 26.8192,18.5864 31,25.5C 32.4659,23.6751 34.2992,23.1751 36.5,24C 37.2829,26.1184 38.6162,27.6184 40.5,28.5 Z"/></g>
<g><path style="opacity:0.962" fill="#c9ede6" d="M 17.5,37.5 C 19.1667,37.5 20.8333,37.5 22.5,37.5C 22.1722,48.3464 22.5056,59.0131 23.5,69.5C 23.3284,70.4916 23.6618,71.1583 24.5,71.5C 41.8365,71.6666 59.1699,71.4999 76.5,71C 77.9265,68.9546 78.9265,66.7879 79.5,64.5C 81.3591,64.1121 83.3591,64.1121 85.5,64.5C 87.1667,64.5 88.8333,64.5 90.5,64.5C 90.0003,73.1528 85.3336,76.9862 76.5,76C 70.6861,82.2645 64.1861,83.0978 57,78.5C 52.9633,83.7365 47.63,86.0698 41,85.5C 27.5893,84.9226 20.756,77.9226 20.5,64.5C 15.4081,64.9073 11.5748,62.9073 9,58.5C 7.83609,53.2741 8.66943,48.4408 11.5,44C 13.2166,42.4412 15.2166,41.6079 17.5,41.5C 17.5,40.1667 17.5,38.8333 17.5,37.5 Z"/></g>
<g><path style="opacity:1" fill="#da4757" d="M 26.5,35.5 C 27.1667,35.8333 27.8333,36.1667 28.5,36.5C 33.3389,40.5008 38.3389,44.3341 43.5,48C 41.8659,48.4935 40.1992,48.6602 38.5,48.5C 33.8723,44.8444 29.2056,41.1777 24.5,37.5C 24.5,36.1667 25.1667,35.5 26.5,35.5 Z"/></g>
<g><path style="opacity:1" fill="#f0ecec" d="M 28.5,36.5 C 29.0968,35.8614 29.9302,35.528 31,35.5C 32.9386,35.9543 34.772,36.621 36.5,37.5C 39.4546,40.1156 42.4546,42.7823 45.5,45.5C 46.48,42.9135 46.8134,40.2469 46.5,37.5C 46.5,36.1667 47.1667,35.5 48.5,35.5C 48.5,40.1667 48.5,44.8333 48.5,49.5C 40.5,49.5 32.5,49.5 24.5,49.5C 28.97,48.5139 33.6367,48.1805 38.5,48.5C 40.1992,48.6602 41.8659,48.4935 43.5,48C 38.3389,44.3341 33.3389,40.5008 28.5,36.5 Z"/></g>
<g><path style="opacity:1" fill="#7b9cc6" d="M 36.5,37.5 C 39.8333,37.5 43.1667,37.5 46.5,37.5C 46.8134,40.2469 46.48,42.9135 45.5,45.5C 42.4546,42.7823 39.4546,40.1156 36.5,37.5 Z"/></g>
<g><path style="opacity:1" fill="#e63d52" d="M 48.5,34.5 C 50.1667,34.5 51.8333,34.5 53.5,34.5C 53.5,34.8333 53.5,35.1667 53.5,35.5C 53.5,40.1667 53.5,44.8333 53.5,49.5C 61.3228,50.3292 69.3228,50.8292 77.5,51C 76.7476,51.6708 76.4142,52.5041 76.5,53.5C 68.7338,54.1369 61.0671,54.8036 53.5,55.5C 53.5,60.1667 53.5,64.8333 53.5,69.5C 53.5,69.8333 53.5,70.1667 53.5,70.5C 51.8333,70.5 50.1667,70.5 48.5,70.5C 48.5,69.5 48.5,68.5 48.5,67.5C 48.5,63.5 48.5,59.5 48.5,55.5C 40.6841,54.5076 32.6841,54.1743 24.5,54.5C 24.4568,50.1074 24.9568,49.7741 26,53.5C 26.4828,52.552 26.6495,51.552 26.5,50.5C 34.0191,50.825 41.3524,50.4916 48.5,49.5C 48.5,44.8333 48.5,40.1667 48.5,35.5C 48.5,35.1667 48.5,34.8333 48.5,34.5 Z"/></g>
<g><path style="opacity:1" fill="#8395b6" d="M 53.5,35.5 C 53.5,35.1667 53.5,34.8333 53.5,34.5C 59.1667,34.5 64.8333,34.5 70.5,34.5C 67.3933,38.2153 63.7267,41.2153 59.5,43.5C 57.9826,43.5106 56.8159,44.1772 56,45.5C 56.0835,41.6887 55.2501,38.3554 53.5,35.5 Z"/></g>
<g><path style="opacity:1" fill="#db4656" d="M 70.5,34.5 C 72.4147,34.2155 74.0813,34.5489 75.5,35.5C 74.5,35.8333 73.8333,36.5 73.5,37.5C 68.9933,41.168 64.3266,44.668 59.5,48C 58.0563,48.7805 56.723,48.6139 55.5,47.5C 57.188,46.4787 58.5213,45.1454 59.5,43.5C 63.7267,41.2153 67.3933,38.2153 70.5,34.5 Z"/></g>
<g><path style="opacity:1" fill="#eee9e9" d="M 53.5,35.5 C 55.2501,38.3554 56.0835,41.6887 56,45.5C 56.8159,44.1772 57.9826,43.5106 59.5,43.5C 58.5213,45.1454 57.188,46.4787 55.5,47.5C 56.723,48.6139 58.0563,48.7805 59.5,48C 64.3266,44.668 68.9933,41.168 73.5,37.5C 74.5735,38.2506 74.7401,39.2506 74,40.5C 71.2605,43.1176 68.4272,45.6176 65.5,48C 68.6946,48.1805 71.6946,48.6805 74.5,49.5C 67.5,49.5 60.5,49.5 53.5,49.5C 53.5,44.8333 53.5,40.1667 53.5,35.5 Z"/></g>
<g><path style="opacity:1" fill="#8195b5" d="M 77.5,34.5 C 77.8333,34.5 78.1667,34.5 78.5,34.5C 78.5,35.1667 78.5,35.8333 78.5,36.5C 77.5151,40.6344 77.1818,44.9677 77.5,49.5C 76.5,49.5 75.5,49.5 74.5,49.5C 71.6946,48.6805 68.6946,48.1805 65.5,48C 68.4272,45.6176 71.2605,43.1176 74,40.5C 74.7401,39.2506 74.5735,38.2506 73.5,37.5C 73.8333,36.5 74.5,35.8333 75.5,35.5C 76.4916,35.6716 77.1583,35.3382 77.5,34.5 Z"/></g>
<g><path style="opacity:1" fill="#7f8faf" d="M 24.5,37.5 C 29.2056,41.1777 33.8723,44.8444 38.5,48.5C 33.6367,48.1805 28.97,48.5139 24.5,49.5C 24.1667,49.5 23.8333,49.5 23.5,49.5C 23.1832,45.2984 23.5166,41.2984 24.5,37.5 Z"/></g>
<g><path style="opacity:1" fill="#c1747c" d="M 23.5,49.5 C 23.8333,49.5 24.1667,49.5 24.5,49.5C 32.5,49.5 40.5,49.5 48.5,49.5C 41.3524,50.4916 34.0191,50.825 26.5,50.5C 26.6495,51.552 26.4828,52.552 26,53.5C 24.9568,49.7741 24.4568,50.1074 24.5,54.5C 32.6841,54.1743 40.6841,54.5076 48.5,55.5C 40.5,55.5 32.5,55.5 24.5,55.5C 24.1667,55.5 23.8333,55.5 23.5,55.5C 23.5,53.5 23.5,51.5 23.5,49.5 Z"/></g>
<g><path style="opacity:1" fill="#f7f5e8" d="M 85.5,64.5 C 83.3591,64.1121 81.3591,64.1121 79.5,64.5C 75.9787,63.6931 72.312,63.0264 68.5,62.5C 68.3433,61.1266 68.51,59.7932 69,58.5C 71.9758,57.3245 74.4758,55.6578 76.5,53.5C 79.3064,50.7005 81.8064,51.0338 84,54.5C 85.0495,53.4829 86.2161,53.3162 87.5,54C 94.6955,59.382 94.0288,62.882 85.5,64.5 Z"/></g>
<g><path style="opacity:1" fill="#eee9e9" d="M 24.5,55.5 C 32.5,55.5 40.5,55.5 48.5,55.5C 48.5,59.5 48.5,63.5 48.5,67.5C 47.8333,67.5 47.1667,67.5 46.5,67.5C 46.8064,64.6146 46.4731,61.9479 45.5,59.5C 45.5,59.1667 45.5,58.8333 45.5,58.5C 46.0431,58.44 46.3764,58.1067 46.5,57.5C 45.277,56.3861 43.9437,56.2195 42.5,57C 37.9825,60.7524 33.3158,64.2524 28.5,67.5C 26.9519,67.1788 26.2852,66.1788 26.5,64.5C 29.9527,62.2614 33.286,59.7614 36.5,57C 33.1832,56.5017 29.8499,56.335 26.5,56.5C 25.5084,56.6716 24.8417,56.3382 24.5,55.5 Z"/></g>
<g><path style="opacity:1" fill="#ede7e8" d="M 53.5,55.5 C 59.5092,55.3338 65.5092,55.5005 71.5,56C 69.5,56.3333 67.5,56.6667 65.5,57C 66.3805,57.7083 67.0472,58.5416 67.5,59.5C 65.8042,59.3146 64.4709,58.4813 63.5,57C 61.8333,56.3333 60.1667,56.3333 58.5,57C 63.9403,60.7087 68.9403,64.8753 73.5,69.5C 71.8008,69.6602 70.1341,69.4935 68.5,69C 64.2435,65.9547 60.0768,62.788 56,59.5C 55.7822,62.4262 55.2822,65.2595 54.5,68C 55.7119,69.1068 55.3786,69.6068 53.5,69.5C 53.5,64.8333 53.5,60.1667 53.5,55.5 Z"/></g>
<g><path style="opacity:1" fill="#825f65" d="M 76.5,53.5 C 74.4758,55.6578 71.9758,57.3245 69,58.5C 68.51,59.7932 68.3433,61.1266 68.5,62.5C 67.596,61.791 67.2627,60.791 67.5,59.5C 67.0472,58.5416 66.3805,57.7083 65.5,57C 67.5,56.6667 69.5,56.3333 71.5,56C 65.5092,55.5005 59.5092,55.3338 53.5,55.5C 61.0671,54.8036 68.7338,54.1369 76.5,53.5 Z"/></g>
<g><path style="opacity:0.992" fill="#6c4949" d="M 78.5,36.5 C 78.5,41.1667 78.5,45.8333 78.5,50.5C 81.6839,51.6427 85.0173,52.3094 88.5,52.5C 92.53,55.0593 94.03,58.726 93,63.5C 92.3292,64.2524 91.4959,64.5858 90.5,64.5C 88.8333,64.5 87.1667,64.5 85.5,64.5C 94.0288,62.882 94.6955,59.382 87.5,54C 86.2161,53.3162 85.0495,53.4829 84,54.5C 81.8064,51.0338 79.3064,50.7005 76.5,53.5C 76.4142,52.5041 76.7476,51.6708 77.5,51C 69.3228,50.8292 61.3228,50.3292 53.5,49.5C 60.5,49.5 67.5,49.5 74.5,49.5C 75.5,49.5 76.5,49.5 77.5,49.5C 77.1818,44.9677 77.5151,40.6344 78.5,36.5 Z"/></g>
<g><path style="opacity:1" fill="#72788e" d="M 23.5,55.5 C 23.8333,55.5 24.1667,55.5 24.5,55.5C 24.8417,56.3382 25.5084,56.6716 26.5,56.5C 26.5,59.1667 26.5,61.8333 26.5,64.5C 26.2852,66.1788 26.9519,67.1788 28.5,67.5C 28.1667,68.5 27.5,69.1667 26.5,69.5C 26.5,69.8333 26.5,70.1667 26.5,70.5C 25.5084,70.3284 24.8417,70.6618 24.5,71.5C 23.6618,71.1583 23.3284,70.4916 23.5,69.5C 23.5,64.8333 23.5,60.1667 23.5,55.5 Z"/></g>
<g><path style="opacity:1" fill="#7a9bc5" d="M 26.5,56.5 C 29.8499,56.335 33.1832,56.5017 36.5,57C 33.286,59.7614 29.9527,62.2614 26.5,64.5C 26.5,61.8333 26.5,59.1667 26.5,56.5 Z"/></g>
<g><path style="opacity:1" fill="#d74655" d="M 45.5,58.5 C 40.5137,62.1549 35.847,66.1549 31.5,70.5C 29.8333,70.5 28.1667,70.5 26.5,70.5C 26.5,70.1667 26.5,69.8333 26.5,69.5C 27.5,69.1667 28.1667,68.5 28.5,67.5C 33.3158,64.2524 37.9825,60.7524 42.5,57C 43.9437,56.2195 45.277,56.3861 46.5,57.5C 46.3764,58.1067 46.0431,58.44 45.5,58.5 Z"/></g>
<g><path style="opacity:1" fill="#d94555" d="M 67.5,59.5 C 67.2627,60.791 67.596,61.791 68.5,62.5C 69.6354,64.2132 71.302,64.8799 73.5,64.5C 74.3065,65.7281 75.3065,66.7281 76.5,67.5C 76.5,68.8333 75.8333,69.5 74.5,69.5C 74.1667,69.5 73.8333,69.5 73.5,69.5C 68.9403,64.8753 63.9403,60.7087 58.5,57C 60.1667,56.3333 61.8333,56.3333 63.5,57C 64.4709,58.4813 65.8042,59.3146 67.5,59.5 Z"/></g>
<g><path style="opacity:1" fill="#779cc9" d="M 45.5,59.5 C 46.4731,61.9479 46.8064,64.6146 46.5,67.5C 43.4816,67.6646 40.4816,67.498 37.5,67C 40.4315,64.7155 43.0982,62.2155 45.5,59.5 Z"/></g>
<g><path style="opacity:1" fill="#788fb2" d="M 73.5,69.5 C 73.8333,69.5 74.1667,69.5 74.5,69.5C 67.6866,70.4912 60.6866,70.8245 53.5,70.5C 53.5,70.1667 53.5,69.8333 53.5,69.5C 55.3786,69.6068 55.7119,69.1068 54.5,68C 55.2822,65.2595 55.7822,62.4262 56,59.5C 60.0768,62.788 64.2435,65.9547 68.5,69C 70.1341,69.4935 71.8008,69.6602 73.5,69.5 Z"/></g>
<g><path style="opacity:1" fill="#85808e" d="M 73.5,64.5 C 74.8333,64.5 76.1667,64.5 77.5,64.5C 77.7373,65.791 77.404,66.791 76.5,67.5C 75.3065,66.7281 74.3065,65.7281 73.5,64.5 Z"/></g>
<g><path style="opacity:1" fill="#fbfbfb" d="M 26.5,69.5 C 24.7748,69.1575 24.2748,68.1575 25,66.5C 25.5133,67.5266 26.0133,68.5266 26.5,69.5 Z"/></g>
<g><path style="opacity:1" fill="#858698" d="M 45.5,58.5 C 45.5,58.8333 45.5,59.1667 45.5,59.5C 43.0982,62.2155 40.4315,64.7155 37.5,67C 40.4816,67.498 43.4816,67.6646 46.5,67.5C 47.1667,67.5 47.8333,67.5 48.5,67.5C 48.5,68.5 48.5,69.5 48.5,70.5C 42.8333,70.5 37.1667,70.5 31.5,70.5C 35.847,66.1549 40.5137,62.1549 45.5,58.5 Z"/></g>
<g><path style="opacity:1" fill="#4b2e2c" d="M 68.5,62.5 C 72.312,63.0264 75.9787,63.6931 79.5,64.5C 78.9265,66.7879 77.9265,68.9546 76.5,71C 59.1699,71.4999 41.8365,71.6666 24.5,71.5C 24.8417,70.6618 25.5084,70.3284 26.5,70.5C 28.1667,70.5 29.8333,70.5 31.5,70.5C 37.1667,70.5 42.8333,70.5 48.5,70.5C 50.1667,70.5 51.8333,70.5 53.5,70.5C 60.6866,70.8245 67.6866,70.4912 74.5,69.5C 75.8333,69.5 76.5,68.8333 76.5,67.5C 77.404,66.791 77.7373,65.791 77.5,64.5C 76.1667,64.5 74.8333,64.5 73.5,64.5C 71.302,64.8799 69.6354,64.2132 68.5,62.5 Z"/></g>
</svg>
