<?xml version="1.0" encoding="UTF-8"?>
<!DOCTYPE svg PUBLIC "-//W3C//DTD SVG 1.1//EN" "http://www.w3.org/Graphics/SVG/1.1/DTD/svg11.dtd">
<svg xmlns="http://www.w3.org/2000/svg" version="1.1" width="512px" height="512px" style="shape-rendering:geometricPrecision; text-rendering:geometricPrecision; image-rendering:optimizeQuality; fill-rule:evenodd; clip-rule:evenodd" xmlns:xlink="http://www.w3.org/1999/xlink">
<g><path style="opacity:0.975" fill="#010101" d="M 226.5,246.5 C 222.976,245.982 220.643,243.982 219.5,240.5C 219.833,225.485 219.499,210.485 218.5,195.5C 217.893,195.624 217.56,195.957 217.5,196.5C 213.269,198.87 208.935,199.037 204.5,197C 195.288,190.788 187.788,182.955 182,173.5C 179.839,169.302 180.172,165.302 183,161.5C 187.649,155.684 192.816,150.351 198.5,145.5C 196.368,142.104 195.035,138.437 194.5,134.5C 186.493,134.666 178.493,134.5 170.5,134C 163.164,130.497 160.164,124.663 161.5,116.5C 136.167,116.5 110.833,116.5 85.5,116.5C 75.1613,116.334 64.828,116.5 54.5,117C 41.3333,130.167 28.1667,143.333 15,156.5C 14.1678,229.668 14.3345,302.668 15.5,375.5C 63.6638,376.499 111.997,376.832 160.5,376.5C 160.5,373.167 160.5,369.833 160.5,366.5C 164.581,338.578 179.915,319.745 206.5,310C 210.514,309.163 214.514,308.329 218.5,307.5C 218.333,295.495 218.5,283.495 219,271.5C 220.542,268.108 223.042,266.108 226.5,265.5C 230.09,265.544 232.59,267.211 234,270.5C 234.5,282.829 234.667,295.162 234.5,307.5C 266.198,312.697 285.364,331.03 292,362.5C 295.648,392.028 285.148,414.861 260.5,431C 227.907,446.815 199.073,441.648 174,415.5C 168.289,408.412 164.456,400.412 162.5,391.5C 155.833,391.5 149.167,391.5 142.5,391.5C 145.004,402.143 141.004,406.976 130.5,406C 129.667,405.167 128.833,404.333 128,403.5C 126.646,399.637 126.146,395.637 126.5,391.5C 88.1652,391.667 49.8319,391.5 11.5,391C 6.0678,389.064 2.0678,385.564 -0.5,380.5C -0.5,304.167 -0.5,227.833 -0.5,151.5C 14.2393,135.258 29.5726,119.425 45.5,104C 46.8333,103.333 48.1667,102.667 49.5,102C 86.4985,101.5 123.498,101.333 160.5,101.5C 160.054,94.9767 162.388,89.8101 167.5,86C 176.085,84.8893 184.752,84.056 193.5,83.5C 194.559,80.3821 195.892,77.3821 197.5,74.5C 192.848,69.3481 188.015,64.3481 183,59.5C 180.095,54.3488 179.762,49.0155 182,43.5C 188.915,34.5829 197.082,27.0829 206.5,21C 210.782,20.0349 214.782,20.7016 218.5,23C 223.167,27.6667 227.833,32.3333 232.5,37C 236.442,36.466 240.275,35.2993 244,33.5C 244.333,25.5 244.667,17.5 245,9.5C 247.066,4.37394 250.9,1.54061 256.5,1C 266.561,0.104993 276.561,0.438326 286.5,2C 288.96,3.4578 291.127,5.29113 293,7.5C 294.275,16.065 294.942,24.7316 295,33.5C 298.725,35.2993 302.558,36.466 306.5,37C 311.905,30.924 317.905,25.5907 324.5,21C 330.648,20.0492 335.981,21.7159 340.5,26C 346.033,31.1983 351.2,36.6983 356,42.5C 359.473,48.7133 359.14,54.7133 355,60.5C 350.318,65.0148 345.818,69.6815 341.5,74.5C 342.833,77.5 344.167,80.5 345.5,83.5C 354.221,84.0877 362.888,84.921 371.5,86C 376.631,89.8907 378.965,95.0574 378.5,101.5C 382.514,101.334 386.514,101.501 390.5,102C 395.296,106.248 395.63,110.748 391.5,115.5C 387.339,117.185 383.006,117.852 378.5,117.5C 378.989,125.03 375.989,130.53 369.5,134C 361.479,134.168 353.479,134.668 345.5,135.5C 343.697,139.071 342.53,142.738 342,146.5C 348.076,151.905 353.409,157.905 358,164.5C 359.109,169.648 358.109,174.315 355,178.5C 348.457,185.711 341.29,192.211 333.5,198C 328.56,199.041 323.894,198.374 319.5,196C 314.652,190.985 309.652,186.152 304.5,181.5C 301.618,183.108 298.618,184.441 295.5,185.5C 294.668,193.479 294.168,201.479 294,209.5C 292.373,214.062 289.206,216.895 284.5,218C 279.447,218.217 274.447,218.717 269.5,219.5C 264.553,218.717 259.553,218.217 254.5,218C 249.765,216.932 246.598,214.099 245,209.5C 244.832,201.479 244.332,193.479 243.5,185.5C 240.573,184.199 237.573,183.199 234.5,182.5C 234.667,202.169 234.5,221.836 234,241.5C 232.59,244.789 230.09,246.456 226.5,246.5 Z"/></g>
<g><path style="opacity:1" fill="#658a95" d="M 279.5,39.5 C 270.289,43.612 262.289,49.4454 255.5,57C 256.094,57.4643 256.761,57.631 257.5,57.5C 225.243,69.0014 212.41,91.6681 219,125.5C 225.873,143.543 238.373,155.543 256.5,161.5C 255.475,161.897 255.308,162.563 256,163.5C 262.91,170.253 270.744,175.587 279.5,179.5C 279.5,187.5 279.5,195.5 279.5,203.5C 272.833,203.5 266.167,203.5 259.5,203.5C 259.666,195.493 259.5,187.493 259,179.5C 257.412,174.948 254.245,172.115 249.5,171C 245.271,169.885 241.271,168.219 237.5,166C 234.5,165.333 231.5,165.333 228.5,166C 222.531,170.967 216.865,176.301 211.5,182C 210.833,182.667 210.167,182.667 209.5,182C 205.167,177.667 200.833,173.333 196.5,169C 202.742,163.429 208.242,157.262 213,150.5C 212.942,140.532 210.109,131.366 204.5,123C 202.51,121.249 200.177,120.249 197.5,120C 190.174,119.5 182.841,119.334 175.5,119.5C 175.5,112.833 175.5,106.167 175.5,99.5C 183.507,99.6664 191.507,99.4997 199.5,99C 202.937,97.8951 205.437,95.7284 207,92.5C 208.723,87.3873 210.723,82.3873 213,77.5C 213.667,74.5 213.667,71.5 213,68.5C 208.033,62.5315 202.699,56.8648 197,51.5C 196.333,50.8333 196.333,50.1667 197,49.5C 201.045,45.1192 205.378,41.1192 210,37.5C 215.122,41.6201 219.956,46.1201 224.5,51C 228.555,53.3403 232.889,54.007 237.5,53C 243.167,50.6667 248.833,48.3333 254.5,46C 256.894,44.0478 258.394,41.5478 259,38.5C 259.5,30.8406 259.666,23.1739 259.5,15.5C 266.211,15.287 272.877,15.6204 279.5,16.5C 279.5,24.1667 279.5,31.8333 279.5,39.5 Z"/></g>
<g><path style="opacity:1" fill="#799eae" d="M 279.5,179.5 C 270.744,175.587 262.91,170.253 256,163.5C 255.308,162.563 255.475,161.897 256.5,161.5C 289.65,165.855 311.15,152.189 321,120.5C 323.822,108.665 322.489,97.332 317,86.5C 313.959,83.4585 310.459,82.7918 306.5,84.5C 303.244,78.5161 298.577,73.8494 292.5,70.5C 293.648,65.561 291.981,62.061 287.5,60C 277.707,56.6442 267.707,55.8108 257.5,57.5C 256.761,57.631 256.094,57.4643 255.5,57C 262.289,49.4454 270.289,43.612 279.5,39.5C 280.783,41.8682 282.45,44.0349 284.5,46C 291.343,49.0951 298.343,51.5951 305.5,53.5C 307.965,53.5223 310.298,53.0223 312.5,52C 317.801,47.7002 322.801,43.0336 327.5,38C 328.5,37.3333 329.5,37.3333 330.5,38C 334.682,42.015 338.682,46.1817 342.5,50.5C 336.816,56.3501 331.316,62.3501 326,68.5C 325.333,71.5 325.333,74.5 326,77.5C 328.333,83.1667 330.667,88.8333 333,94.5C 334.558,96.3589 336.391,97.8589 338.5,99C 346.827,99.4997 355.16,99.6664 363.5,99.5C 363.5,106.167 363.5,112.833 363.5,119.5C 355.493,119.334 347.493,119.5 339.5,120C 336.265,121.36 333.765,123.527 332,126.5C 330.39,131.331 328.39,135.997 326,140.5C 324.959,145.44 325.626,150.106 328,154.5C 332.833,159.333 337.667,164.167 342.5,169C 338.167,173.333 333.833,177.667 329.5,182C 328.833,182.667 328.167,182.667 327.5,182C 322.5,177 317.5,172 312.5,167C 310.256,166.094 307.923,165.594 305.5,165.5C 298.994,167.083 292.661,169.249 286.5,172C 283.254,173.742 280.921,176.242 279.5,179.5 Z"/></g>
<g><path style="opacity:1" fill="#010202" d="M 292.5,70.5 C 290.961,73.1061 288.628,74.4395 285.5,74.5C 282.154,73.8295 278.821,73.1628 275.5,72.5C 249.886,70.7575 235.219,82.7575 231.5,108.5C 232.089,125.581 240.089,137.748 255.5,145C 259.963,146.975 264.629,147.808 269.5,147.5C 292.485,145.182 305.152,132.515 307.5,109.5C 306.997,103.152 305.664,96.9854 303.5,91C 303.84,88.4887 304.84,86.322 306.5,84.5C 310.459,82.7918 313.959,83.4585 317,86.5C 322.489,97.332 323.822,108.665 321,120.5C 311.15,152.189 289.65,165.855 256.5,161.5C 238.373,155.543 225.873,143.543 219,125.5C 212.41,91.6681 225.243,69.0014 257.5,57.5C 267.707,55.8108 277.707,56.6442 287.5,60C 291.981,62.061 293.648,65.561 292.5,70.5 Z"/></g>
<g><path style="opacity:1" fill="#3d5757" d="M 292.5,70.5 C 298.577,73.8494 303.244,78.5161 306.5,84.5C 304.84,86.322 303.84,88.4887 303.5,91C 305.664,96.9854 306.997,103.152 307.5,109.5C 305.152,132.515 292.485,145.182 269.5,147.5C 263.258,142.756 258.258,136.922 254.5,130C 254.57,129.235 254.903,128.735 255.5,128.5C 268.257,135.378 279.423,133.378 289,122.5C 295.884,108.778 293.05,97.6113 280.5,89C 271.897,85.3562 263.564,85.8562 255.5,90.5C 254.903,90.2648 254.57,89.7648 254.5,89C 257.346,83.1458 261.346,78.1458 266.5,74C 269.351,72.7114 272.351,72.2114 275.5,72.5C 278.821,73.1628 282.154,73.8295 285.5,74.5C 288.628,74.4395 290.961,73.1061 292.5,70.5 Z"/></g>
<g><path style="opacity:1" fill="#364747" d="M 275.5,72.5 C 272.351,72.2114 269.351,72.7114 266.5,74C 261.346,78.1458 257.346,83.1458 254.5,89C 254.57,89.7648 254.903,90.2648 255.5,90.5C 246.588,98.0349 244.088,107.368 248,118.5C 249.803,122.477 252.303,125.811 255.5,128.5C 254.903,128.735 254.57,129.235 254.5,130C 258.258,136.922 263.258,142.756 269.5,147.5C 264.629,147.808 259.963,146.975 255.5,145C 240.089,137.748 232.089,125.581 231.5,108.5C 235.219,82.7575 249.886,70.7575 275.5,72.5 Z"/></g>
<g><path style="opacity:1" fill="#020202" d="M 255.5,128.5 C 252.303,125.811 249.803,122.477 248,118.5C 244.088,107.368 246.588,98.0349 255.5,90.5C 263.564,85.8562 271.897,85.3562 280.5,89C 293.05,97.6113 295.884,108.778 289,122.5C 279.423,133.378 268.257,135.378 255.5,128.5 Z"/></g>
<g><path style="opacity:1" fill="#f8f8f8" d="M 265.5,101.5 C 274.658,100.491 278.492,104.491 277,113.5C 272,118.833 267,118.833 262,113.5C 260.593,108.643 261.76,104.643 265.5,101.5 Z"/></g>
<g><path style="opacity:0.889" fill="#000000" d="M 406.5,106.5 C 413.196,106.006 417.696,109.006 420,115.5C 421.363,119.761 421.696,124.095 421,128.5C 418.774,132.861 415.274,134.361 410.5,133C 408.333,132.167 406.833,130.667 406,128.5C 405.368,123.565 403.868,118.899 401.5,114.5C 402.193,111.09 403.86,108.423 406.5,106.5 Z"/></g>
<g><path style="opacity:1" fill="#f9e1bf" d="M 85.5,116.5 C 73.1726,128.994 61.006,141.661 49,154.5C 48.5,228.166 48.3333,301.833 48.5,375.5C 37.5,375.5 26.5,375.5 15.5,375.5C 14.3345,302.668 14.1678,229.668 15,156.5C 28.1667,143.333 41.3333,130.167 54.5,117C 64.828,116.5 75.1613,116.334 85.5,116.5 Z"/></g>
<g><path style="opacity:1" fill="#fcefd8" d="M 85.5,116.5 C 110.833,116.5 136.167,116.5 161.5,116.5C 160.164,124.663 163.164,130.497 170.5,134C 178.493,134.5 186.493,134.666 194.5,134.5C 195.035,138.437 196.368,142.104 198.5,145.5C 192.816,150.351 187.649,155.684 183,161.5C 180.172,165.302 179.839,169.302 182,173.5C 187.788,182.955 195.288,190.788 204.5,197C 208.935,199.037 213.269,198.87 217.5,196.5C 218.167,211.167 218.833,225.833 219.5,240.5C 220.643,243.982 222.976,245.982 226.5,246.5C 226.5,252.833 226.5,259.167 226.5,265.5C 223.042,266.108 220.542,268.108 219,271.5C 218.5,283.495 218.333,295.495 218.5,307.5C 214.514,308.329 210.514,309.163 206.5,310C 179.915,319.745 164.581,338.578 160.5,366.5C 159.523,369.287 159.19,372.287 159.5,375.5C 122.5,375.5 85.5,375.5 48.5,375.5C 48.3333,301.833 48.5,228.166 49,154.5C 61.006,141.661 73.1726,128.994 85.5,116.5 Z"/></g>
<g><path style="opacity:0.889" fill="#000000" d="M 410.5,142.5 C 415.28,141.641 418.78,143.308 421,147.5C 421.667,153.5 421.667,159.5 421,165.5C 417.987,170.535 413.82,171.702 408.5,169C 407.299,168.097 406.465,166.931 406,165.5C 405.333,159.5 405.333,153.5 406,147.5C 407.025,145.313 408.525,143.646 410.5,142.5 Z"/></g>
<g><path style="opacity:1" fill="#070706" d="M 62.5,171.5 C 98.5015,171.333 134.502,171.5 170.5,172C 178.073,176.187 178.406,180.854 171.5,186C 134.833,186.667 98.1667,186.667 61.5,186C 57.7885,183.487 56.6218,179.987 58,175.5C 59.3968,173.93 60.8968,172.596 62.5,171.5 Z"/></g>
<g><path style="opacity:0.889" fill="#000000" d="M 410.5,179.5 C 415.28,178.641 418.78,180.308 421,184.5C 421.667,190.5 421.667,196.5 421,202.5C 417.987,207.535 413.82,208.702 408.5,206C 407.299,205.097 406.465,203.931 406,202.5C 405.333,196.5 405.333,190.5 406,184.5C 407.025,182.313 408.525,180.646 410.5,179.5 Z"/></g>
<g><path style="opacity:1" fill="#6c665d" d="M 217.5,196.5 C 217.56,195.957 217.893,195.624 218.5,195.5C 219.499,210.485 219.833,225.485 219.5,240.5C 218.833,225.833 218.167,211.167 217.5,196.5 Z"/></g>
<g><path style="opacity:1" fill="#0a0908" d="M 61.5,208.5 C 98.5015,208.333 135.502,208.5 172.5,209C 178.133,214.487 177.466,219.154 170.5,223C 134.5,223.667 98.5,223.667 62.5,223C 57.4648,219.987 56.2981,215.82 59,210.5C 59.9947,209.934 60.828,209.267 61.5,208.5 Z"/></g>
<g><path style="opacity:0.971" fill="#000000" d="M 511.5,248.5 C 511.5,270.167 511.5,291.833 511.5,313.5C 509.203,317.287 505.869,319.787 501.5,321C 474.835,321.5 448.169,321.667 421.5,321.5C 421.5,326.167 421.5,330.833 421.5,335.5C 448.835,335.333 476.169,335.5 503.5,336C 507.35,337.353 510.017,339.853 511.5,343.5C 511.5,365.167 511.5,386.833 511.5,408.5C 509.691,411.139 507.358,413.306 504.5,415C 493.5,415.667 482.5,415.667 471.5,415C 469.113,413.453 467.78,411.287 467.5,408.5C 468.053,405.413 469.72,402.913 472.5,401C 480.493,400.5 488.493,400.334 496.5,400.5C 496.5,384.167 496.5,367.833 496.5,351.5C 441.336,350.501 386.003,350.168 330.5,350.5C 330.5,367.167 330.5,383.833 330.5,400.5C 339.167,400.5 347.833,400.5 356.5,400.5C 385.169,400.333 413.835,400.5 442.5,401C 445.892,402.542 447.892,405.042 448.5,408.5C 448.256,411.263 446.923,413.429 444.5,415C 436.841,415.5 429.174,415.666 421.5,415.5C 421.5,420.5 421.5,425.5 421.5,430.5C 449.169,430.333 476.835,430.5 504.5,431C 507.358,432.694 509.691,434.861 511.5,437.5C 511.5,459.5 511.5,481.5 511.5,503.5C 509.628,506.529 506.961,508.695 503.5,510C 443.5,510.667 383.5,510.667 323.5,510C 318.449,508.283 315.615,504.783 315,499.5C 314.667,492.5 314.333,485.5 314,478.5C 308.548,475.473 307.214,471.139 310,465.5C 311.154,464.257 312.488,463.257 314,462.5C 314.333,455.5 314.667,448.5 315,441.5C 315.412,437.509 317.246,434.342 320.5,432C 348.745,430.517 377.078,430.017 405.5,430.5C 405.5,425.5 405.5,420.5 405.5,415.5C 377.831,415.667 350.165,415.5 322.5,415C 318.056,412.889 315.556,409.389 315,404.5C 314.333,385.167 314.333,365.833 315,346.5C 315.615,341.217 318.449,337.717 323.5,336C 350.831,335.5 378.165,335.333 405.5,335.5C 405.5,330.833 405.5,326.167 405.5,321.5C 378.831,321.667 352.165,321.5 325.5,321C 320,319.5 316.5,316 315,310.5C 314.333,290.833 314.333,271.167 315,251.5C 315.757,245.819 318.924,242.319 324.5,241C 351.833,240.667 379.167,240.333 406.5,240C 405.358,233.916 405.191,227.749 406,221.5C 409.013,216.465 413.18,215.298 418.5,218C 419.701,218.903 420.535,220.069 421,221.5C 421.809,227.749 421.642,233.916 420.5,240C 447.833,240.333 475.167,240.667 502.5,241C 506.277,242.614 509.277,245.114 511.5,248.5 Z"/></g>
<g><path style="opacity:1" fill="#070606" d="M 61.5,244.5 C 98.1682,244.333 134.835,244.5 171.5,245C 178.266,249.997 177.933,254.663 170.5,259C 134.5,259.667 98.5,259.667 62.5,259C 57.4648,255.987 56.2981,251.82 59,246.5C 59.9947,245.934 60.828,245.267 61.5,244.5 Z"/></g>
<g><path style="opacity:1" fill="#01b4ea" d="M 496.5,256.5 C 449.833,256.5 403.167,256.5 356.5,256.5C 356.5,262.167 356.5,267.833 356.5,273.5C 351.624,276.139 350.291,280.139 352.5,285.5C 353.852,286.524 355.185,287.524 356.5,288.5C 356.5,294.167 356.5,299.833 356.5,305.5C 347.833,305.5 339.167,305.5 330.5,305.5C 330.5,288.833 330.5,272.167 330.5,255.5C 386.003,255.168 441.336,255.501 496.5,256.5 Z"/></g>
<g><path style="opacity:1" fill="#01cffa" d="M 496.5,256.5 C 496.5,272.833 496.5,289.167 496.5,305.5C 449.833,305.5 403.167,305.5 356.5,305.5C 356.5,299.833 356.5,294.167 356.5,288.5C 394.501,288.667 432.501,288.5 470.5,288C 475.143,285.928 476.643,282.428 475,277.5C 473.786,275.951 472.286,274.785 470.5,274C 432.501,273.5 394.501,273.333 356.5,273.5C 356.5,267.833 356.5,262.167 356.5,256.5C 403.167,256.5 449.833,256.5 496.5,256.5 Z"/></g>
<g><path style="opacity:1" fill="#000101" d="M 356.5,273.5 C 394.501,273.333 432.501,273.5 470.5,274C 472.286,274.785 473.786,275.951 475,277.5C 476.643,282.428 475.143,285.928 470.5,288C 432.501,288.5 394.501,288.667 356.5,288.5C 355.185,287.524 353.852,286.524 352.5,285.5C 350.291,280.139 351.624,276.139 356.5,273.5 Z"/></g>
<g><path style="opacity:1" fill="#070606" d="M 62.5,280.5 C 98.5015,280.333 134.502,280.5 170.5,281C 178.086,285.239 178.42,289.905 171.5,295C 134.833,295.667 98.1667,295.667 61.5,295C 57.7885,292.487 56.6218,288.987 58,284.5C 59.3968,282.93 60.8968,281.596 62.5,280.5 Z"/></g>
<g><path style="opacity:1" fill="#0a0908" d="M 61.5,317.5 C 79.1698,317.333 96.8365,317.5 114.5,318C 118.696,320.981 119.529,324.814 117,329.5C 116.097,330.701 114.931,331.535 113.5,332C 96.5,332.667 79.5,332.667 62.5,332C 57.4648,328.987 56.2981,324.82 59,319.5C 59.9947,318.934 60.828,318.267 61.5,317.5 Z"/></g>
<g><path style="opacity:1" fill="#0dcf8e" d="M 229.5,322.5 C 218.658,329.847 210.491,339.514 205,351.5C 203.851,354.393 203.351,357.393 203.5,360.5C 195.384,358.779 191.884,362.113 193,370.5C 196.732,374.062 200.232,377.729 203.5,381.5C 202.657,386.873 203.49,392.207 206,397.5C 210.634,407.471 217.467,415.637 226.5,422C 229.014,423.252 231.68,423.752 234.5,423.5C 204.633,426.46 185.133,413.46 176,384.5C 172.192,352.994 185.358,332.494 215.5,323C 220.155,322.501 224.821,322.334 229.5,322.5 Z"/></g>
<g><path style="opacity:1" fill="#04e09a" d="M 229.5,322.5 C 258.962,326.464 274.962,343.297 277.5,373C 275.544,400.451 261.211,417.284 234.5,423.5C 231.68,423.752 229.014,423.252 226.5,422C 217.467,415.637 210.634,407.471 206,397.5C 203.49,392.207 202.657,386.873 203.5,381.5C 208.991,386.491 214.325,391.658 219.5,397C 223.329,397.758 226.662,396.758 229.5,394C 239.388,383.78 249.222,373.613 259,363.5C 261.233,355.392 258.066,351.892 249.5,353C 240.349,361.317 231.349,369.817 222.5,378.5C 216.12,372.451 209.787,366.451 203.5,360.5C 203.351,357.393 203.851,354.393 205,351.5C 210.491,339.514 218.658,329.847 229.5,322.5 Z"/></g>
<g><path style="opacity:1" fill="#ebbb00" d="M 496.5,351.5 C 449.833,351.5 403.167,351.5 356.5,351.5C 356.5,356.833 356.5,362.167 356.5,367.5C 394.337,367.168 432.004,367.502 469.5,368.5C 431.499,368.333 393.499,368.5 355.5,369C 352.317,370.018 350.984,372.185 351.5,375.5C 351.546,379.207 353.213,381.873 356.5,383.5C 356.5,389.167 356.5,394.833 356.5,400.5C 347.833,400.5 339.167,400.5 330.5,400.5C 330.5,383.833 330.5,367.167 330.5,350.5C 386.003,350.168 441.336,350.501 496.5,351.5 Z"/></g>
<g><path style="opacity:0.998" fill="#fdd301" d="M 496.5,351.5 C 496.5,367.833 496.5,384.167 496.5,400.5C 488.493,400.334 480.493,400.5 472.5,401C 469.72,402.913 468.053,405.413 467.5,408.5C 461.167,408.5 454.833,408.5 448.5,408.5C 447.892,405.042 445.892,402.542 442.5,401C 413.835,400.5 385.169,400.333 356.5,400.5C 356.5,394.833 356.5,389.167 356.5,383.5C 394.501,383.667 432.501,383.5 470.5,383C 475.535,379.987 476.702,375.82 474,370.5C 472.67,369.418 471.17,368.751 469.5,368.5C 432.004,367.502 394.337,367.168 356.5,367.5C 356.5,362.167 356.5,356.833 356.5,351.5C 403.167,351.5 449.833,351.5 496.5,351.5 Z"/></g>
<g><path style="opacity:1" fill="#020805" d="M 203.5,381.5 C 200.232,377.729 196.732,374.062 193,370.5C 191.884,362.113 195.384,358.779 203.5,360.5C 209.787,366.451 216.12,372.451 222.5,378.5C 231.349,369.817 240.349,361.317 249.5,353C 258.066,351.892 261.233,355.392 259,363.5C 249.222,373.613 239.388,383.78 229.5,394C 226.662,396.758 223.329,397.758 219.5,397C 214.325,391.658 208.991,386.491 203.5,381.5 Z"/></g>
<g><path style="opacity:1" fill="#090601" d="M 469.5,368.5 C 471.17,368.751 472.67,369.418 474,370.5C 476.702,375.82 475.535,379.987 470.5,383C 432.501,383.5 394.501,383.667 356.5,383.5C 353.213,381.873 351.546,379.207 351.5,375.5C 350.984,372.185 352.317,370.018 355.5,369C 393.499,368.5 431.499,368.333 469.5,368.5 Z"/></g>
<g><path style="opacity:1" fill="#d6c9b4" d="M 160.5,366.5 C 160.5,369.833 160.5,373.167 160.5,376.5C 111.997,376.832 63.6638,376.499 15.5,375.5C 26.5,375.5 37.5,375.5 48.5,375.5C 85.5,375.5 122.5,375.5 159.5,375.5C 159.19,372.287 159.523,369.287 160.5,366.5 Z"/></g>
<g><path style="opacity:0.9" fill="#000000" d="M 133.5,415.5 C 141.626,416.888 144.626,421.721 142.5,430C 144.253,439.909 140.253,444.242 130.5,443C 127.034,439.425 125.7,435.092 126.5,430C 125.056,423.058 127.389,418.224 133.5,415.5 Z"/></g>
<g><path style="opacity:1" fill="#e34222" d="M 496.5,446.5 C 449.833,446.5 403.167,446.5 356.5,446.5C 356.5,451.833 356.5,457.167 356.5,462.5C 350.721,466.564 350.054,471.397 354.5,477C 392.832,477.5 431.165,477.667 469.5,477.5C 432.004,478.498 394.337,478.832 356.5,478.5C 356.5,483.833 356.5,489.167 356.5,494.5C 403.167,494.5 449.833,494.5 496.5,494.5C 441.336,495.499 386.003,495.832 330.5,495.5C 330.5,478.833 330.5,462.167 330.5,445.5C 386.003,445.168 441.336,445.501 496.5,446.5 Z"/></g>
<g><path style="opacity:1" fill="#fc5325" d="M 496.5,446.5 C 496.5,462.5 496.5,478.5 496.5,494.5C 449.833,494.5 403.167,494.5 356.5,494.5C 356.5,489.167 356.5,483.833 356.5,478.5C 394.337,478.832 432.004,478.498 469.5,477.5C 474.987,475.862 476.82,472.195 475,466.5C 473.786,464.951 472.286,463.785 470.5,463C 432.501,462.5 394.501,462.333 356.5,462.5C 356.5,457.167 356.5,451.833 356.5,446.5C 403.167,446.5 449.833,446.5 496.5,446.5 Z"/></g>
<g><path style="opacity:0.882" fill="#000000" d="M 133.5,452.5 C 138.632,452.477 142.132,454.81 144,459.5C 146.628,461.126 148.961,463.126 151,465.5C 152.836,473.654 149.669,477.488 141.5,477C 132.149,473.679 127.649,467.179 128,457.5C 129.352,455.251 131.185,453.584 133.5,452.5 Z"/></g>
<g><path style="opacity:0.889" fill="#000000" d="M 165.5,462.5 C 172.284,462.08 178.95,462.58 185.5,464C 189.926,469.441 189.259,474.108 183.5,478C 176.724,478.92 170.057,478.586 163.5,477C 159.128,471.408 159.794,466.575 165.5,462.5 Z"/></g>
<g><path style="opacity:0.889" fill="#000000" d="M 202.5,462.5 C 209.284,462.08 215.95,462.58 222.5,464C 226.926,469.441 226.259,474.108 220.5,478C 213.724,478.92 207.057,478.586 200.5,477C 196.128,471.408 196.794,466.575 202.5,462.5 Z"/></g>
<g><path style="opacity:0.889" fill="#000000" d="M 239.5,462.5 C 246.284,462.08 252.95,462.58 259.5,464C 263.926,469.441 263.259,474.108 257.5,478C 250.724,478.92 244.057,478.586 237.5,477C 233.128,471.408 233.794,466.575 239.5,462.5 Z"/></g>
<g><path style="opacity:0.889" fill="#000000" d="M 276.5,462.5 C 283.284,462.08 289.95,462.58 296.5,464C 300.926,469.441 300.259,474.108 294.5,478C 287.724,478.92 281.057,478.586 274.5,477C 270.128,471.408 270.794,466.575 276.5,462.5 Z"/></g>
<g><path style="opacity:1" fill="#0c0301" d="M 356.5,462.5 C 394.501,462.333 432.501,462.5 470.5,463C 472.286,463.785 473.786,464.951 475,466.5C 476.82,472.195 474.987,475.862 469.5,477.5C 431.165,477.667 392.832,477.5 354.5,477C 350.054,471.397 350.721,466.564 356.5,462.5 Z"/></g>
</svg>
