<?xml version="1.0" encoding="UTF-8"?>
<!DOCTYPE svg PUBLIC "-//W3C//DTD SVG 1.1//EN" "http://www.w3.org/Graphics/SVG/1.1/DTD/svg11.dtd">
<svg xmlns="http://www.w3.org/2000/svg" version="1.1" width="64px" height="64px" style="shape-rendering:geometricPrecision; text-rendering:geometricPrecision; image-rendering:optimizeQuality; fill-rule:evenodd; clip-rule:evenodd" xmlns:xlink="http://www.w3.org/1999/xlink">
<g><path style="opacity:1" fill="#e1b525" d="M 19.5,7.5 C 19.7822,6.22235 20.4489,5.22235 21.5,4.5C 28.8396,-0.0267587 35.6729,0.639908 42,6.5C 44.3403,10.5554 45.007,14.8887 44,19.5C 40.8759,24.0402 39.0426,29.0402 38.5,34.5C 33.8333,34.5 29.1667,34.5 24.5,34.5C 23.9574,29.0402 22.1241,24.0402 19,19.5C 18.3933,15.4631 18.56,11.4631 19.5,7.5 Z"/></g>
<g><path style="opacity:0.513" fill="#120e04" d="M 10.5,12.5 C 15.4728,14.9447 15.6395,17.6114 11,20.5C 9.60567,19.3867 8.439,18.0534 7.5,16.5C 8.90952,15.4305 9.90952,14.0972 10.5,12.5 Z"/></g>
<g><path style="opacity:0.513" fill="#130e04" d="M 51.5,12.5 C 56.4728,14.9447 56.6395,17.6114 52,20.5C 50.6057,19.3867 49.439,18.0534 48.5,16.5C 49.9095,15.4305 50.9095,14.0972 51.5,12.5 Z"/></g>
<g><path style="opacity:1" fill="#f6dc8d" d="M 27.5,4.5 C 36.2086,2.19594 41.5419,5.52928 43.5,14.5C 43.2126,17.8655 42.0459,20.8655 40,23.5C 40.8578,20.8488 41.3578,18.0155 41.5,15C 41.8834,9.76713 39.55,6.4338 34.5,5C 32.1902,4.50335 29.8568,4.33669 27.5,4.5 Z"/></g>
<g><path style="opacity:0.59" fill="#0e0c08" d="M 19.5,7.5 C 18.56,11.4631 18.3933,15.4631 19,19.5C 22.1241,24.0402 23.9574,29.0402 24.5,34.5C 29.1667,34.5 33.8333,34.5 38.5,34.5C 39.0426,29.0402 40.8759,24.0402 44,19.5C 45.007,14.8887 44.3403,10.5554 42,6.5C 35.6729,0.639908 28.8396,-0.0267587 21.5,4.5C 22.4525,2.38995 24.1192,1.22329 26.5,1C 40.4559,-0.711066 46.9559,5.4556 46,19.5C 44.3178,22.8644 42.6511,26.1978 41,29.5C 40.8814,34.2824 40.2148,38.9491 39,43.5C 34,44.8333 29,44.8333 24,43.5C 22.7852,38.9491 22.1186,34.2824 22,29.5C 20.3489,26.1978 18.6822,22.8644 17,19.5C 16.3333,16.8333 16.3333,14.1667 17,11.5C 17.2004,9.68034 18.0337,8.347 19.5,7.5 Z"/></g>
<g><path style="opacity:1" fill="#423b2c" d="M 28.5,8.5 C 26.8918,11.5016 27.2251,14.1682 29.5,16.5C 30.3283,21.1315 30.8283,25.7982 31,30.5C 31.4828,29.552 31.6495,28.552 31.5,27.5C 35.5,27.1667 35.5,26.8333 31.5,26.5C 31.5,25.1667 31.5,23.8333 31.5,22.5C 35.5,22.1667 35.5,21.8333 31.5,21.5C 31.0773,19.2188 31.744,17.5521 33.5,16.5C 33.1961,17.1499 32.8627,17.8165 32.5,18.5C 36.6815,19.5062 37.3482,21.5062 34.5,24.5C 35.2458,25.7362 35.5792,27.0695 35.5,28.5C 34.5,28.5 33.5,28.5 32.5,28.5C 32.5,29.5 32.5,30.5 32.5,31.5C 31.1779,31.67 30.0113,31.3366 29,30.5C 29.2261,24.1298 28.0595,18.1298 25.5,12.5C 25.5613,10.3472 26.5613,9.01384 28.5,8.5 Z"/></g>
<g><path style="opacity:1" fill="#dbdbdb" d="M 28.5,8.5 C 33.3234,8.32724 35.3234,10.6606 34.5,15.5C 34.5,16.1667 34.1667,16.5 33.5,16.5C 31.744,17.5521 31.0773,19.2188 31.5,21.5C 35.5,21.8333 35.5,22.1667 31.5,22.5C 31.5,23.8333 31.5,25.1667 31.5,26.5C 35.5,26.8333 35.5,27.1667 31.5,27.5C 31.6495,28.552 31.4828,29.552 31,30.5C 30.8283,25.7982 30.3283,21.1315 29.5,16.5C 27.2251,14.1682 26.8918,11.5016 28.5,8.5 Z"/></g>
<g><path style="opacity:1" fill="#332c1a" d="M 29.5,11.5 C 31.0927,10.1328 32.4261,10.4661 33.5,12.5C 32.3315,14.2174 30.6648,14.8841 28.5,14.5C 28.2627,13.209 28.596,12.209 29.5,11.5 Z"/></g>
<g><path style="opacity:1" fill="#dbaf1d" d="M 29.5,11.5 C 31.337,11.6395 31.6704,12.3061 30.5,13.5C 29.7025,13.0431 29.3691,12.3764 29.5,11.5 Z"/></g>
<g><path style="opacity:1" fill="#27241d" d="M 28.5,8.5 C 34.675,7.01466 36.675,9.348 34.5,15.5C 35.3234,10.6606 33.3234,8.32724 28.5,8.5 Z"/></g>
<g><path style="opacity:0.522" fill="#140f0d" d="M 62.5,44.5 C 61.596,43.791 61.2627,42.791 61.5,41.5C 61.5,38.5 61.5,35.5 61.5,32.5C 60.1667,32.5 58.8333,32.5 57.5,32.5C 57.6653,36.1817 57.4986,39.8484 57,43.5C 54.1667,46.3333 51.3333,49.1667 48.5,52C 45.7629,53.0798 44.0963,52.2464 43.5,49.5C 45.3032,47.0409 46.6365,44.3743 47.5,41.5C 37.7142,45.4077 34.0475,52.4077 36.5,62.5C 36.5,62.8333 36.5,63.1667 36.5,63.5C 35.8333,63.5 35.1667,63.5 34.5,63.5C 34.1115,58.3722 34.6115,53.3722 36,48.5C 39.0852,44.9071 42.5852,41.9071 46.5,39.5C 48.7394,39.5743 49.7394,40.741 49.5,43C 48.8218,45.5239 47.4885,47.6905 45.5,49.5C 46.0016,50.521 46.6683,50.6877 47.5,50C 50,47.5 52.5,45 55,42.5C 55.203,38.5787 55.703,34.7454 56.5,31C 58.4406,30.2571 60.2739,30.4238 62,31.5C 62.499,35.8206 62.6657,40.1539 62.5,44.5 Z"/></g>
<g><path style="opacity:1" fill="#f0ae9a" d="M 6.5,40.5 C 7.10978,41.391 7.44312,42.391 7.5,43.5C 9.48632,47.4863 12.4863,50.4863 16.5,52.5C 18.5,52.5 19.5,51.5 19.5,49.5C 17.6968,47.0409 16.3635,44.3743 15.5,41.5C 25.2858,45.4077 28.9525,52.4077 26.5,62.5C 23.1667,62.5 19.8333,62.5 16.5,62.5C 16.6495,61.448 16.4828,60.448 16,59.5C 11.3333,54.8333 6.66667,50.1667 2,45.5C 1.50098,41.1794 1.33432,36.8461 1.5,32.5C 2.83333,32.5 4.16667,32.5 5.5,32.5C 5.1936,35.3854 5.52693,38.0521 6.5,40.5 Z"/></g>
<g><path style="opacity:1" fill="#f0ab96" d="M 61.5,41.5 C 60.8365,39.9581 60.1698,38.2914 59.5,36.5C 58.6786,39.4465 58.1786,42.4465 58,45.5C 54,49.5 50,53.5 46,57.5C 45.3083,58.4368 45.475,59.1034 46.5,59.5C 46.5,60.5 46.5,61.5 46.5,62.5C 43.1667,62.5 39.8333,62.5 36.5,62.5C 34.0475,52.4077 37.7142,45.4077 47.5,41.5C 46.6365,44.3743 45.3032,47.0409 43.5,49.5C 44.0963,52.2464 45.7629,53.0798 48.5,52C 51.3333,49.1667 54.1667,46.3333 57,43.5C 57.4986,39.8484 57.6653,36.1817 57.5,32.5C 58.8333,32.5 60.1667,32.5 61.5,32.5C 61.5,35.5 61.5,38.5 61.5,41.5 Z"/></g>
<g><path style="opacity:1" fill="#787674" d="M 24.5,36.5 C 28.97,35.5139 33.6367,35.1805 38.5,35.5C 38.5,36.5 38.5,37.5 38.5,38.5C 33.3183,38.5573 33.3183,39.224 38.5,40.5C 38.2907,41.086 37.9574,41.586 37.5,42C 33.5,42.6667 29.5,42.6667 25.5,42C 24.6634,40.9887 24.33,39.8221 24.5,38.5C 29.8333,37.8333 29.8333,37.1667 24.5,36.5 Z"/></g>
<g><path style="opacity:0.552" fill="#110c0a" d="M 28.5,63.5 C 27.8333,63.5 27.1667,63.5 26.5,63.5C 26.5,63.1667 26.5,62.8333 26.5,62.5C 28.9525,52.4077 25.2858,45.4077 15.5,41.5C 16.3635,44.3743 17.6968,47.0409 19.5,49.5C 19.5,51.5 18.5,52.5 16.5,52.5C 12.4863,50.4863 9.48632,47.4863 7.5,43.5C 10.7485,45.4033 13.7485,47.7366 16.5,50.5C 16.8333,50.1667 17.1667,49.8333 17.5,49.5C 15.5115,47.6905 14.1782,45.5239 13.5,43C 13.7666,39.8358 15.4333,38.8358 18.5,40C 22.0364,43.2012 25.2031,46.7012 28,50.5C 28.499,54.8206 28.6657,59.1539 28.5,63.5 Z"/></g>
<g><path style="opacity:0.514" fill="#1a1412" d="M 6.5,40.5 C 5.52693,38.0521 5.1936,35.3854 5.5,32.5C 4.16667,32.5 2.83333,32.5 1.5,32.5C 1.33432,36.8461 1.50098,41.1794 2,45.5C 6.66667,50.1667 11.3333,54.8333 16,59.5C 16.4828,60.448 16.6495,61.448 16.5,62.5C 16.5,62.8333 16.5,63.1667 16.5,63.5C 15.8333,63.5 15.1667,63.5 14.5,63.5C 14.6495,62.448 14.4828,61.448 14,60.5C 9.66667,56.1667 5.33333,51.8333 1,47.5C 0.333333,42.1667 0.333333,36.8333 1,31.5C 3,30.1667 5,30.1667 7,31.5C 7.80451,34.6965 7.63784,37.6965 6.5,40.5 Z"/></g>
<g><path style="opacity:0.519" fill="#201816" d="M 62.5,45.5 C 58.5998,50.9076 54.0998,55.9076 49,60.5C 48.5172,61.448 48.3505,62.448 48.5,63.5C 47.8333,63.5 47.1667,63.5 46.5,63.5C 46.5,63.1667 46.5,62.8333 46.5,62.5C 46.5,61.5 46.5,60.5 46.5,59.5C 51.5569,54.4382 56.8902,49.7715 62.5,45.5 Z"/></g>
<g><path style="opacity:1" fill="#fbcfc7" d="M 61.5,41.5 C 61.2627,42.791 61.596,43.791 62.5,44.5C 62.5,44.8333 62.5,45.1667 62.5,45.5C 56.8902,49.7715 51.5569,54.4382 46.5,59.5C 45.475,59.1034 45.3083,58.4368 46,57.5C 50,53.5 54,49.5 58,45.5C 58.1786,42.4465 58.6786,39.4465 59.5,36.5C 60.1698,38.2914 60.8365,39.9581 61.5,41.5 Z"/></g>
</svg>
